<svg id="visual" viewBox="0 0 960 540" width="960" height="540" xmlns="http://www.w3.org/2000/svg" xmlns:xlink="http://www.w3.org/1999/xlink" version="1.1"><rect x="0" y="0" width="960" height="540" fill="#bad8e9"></rect><defs><linearGradient id="grad1_0" x1="43.8%" y1="0%" x2="100%" y2="100%"><stop offset="14.444444444444446%" stop-color="#719fd7" stop-opacity="1"></stop><stop offset="85.55555555555554%" stop-color="#719fd7" stop-opacity="1"></stop></linearGradient></defs><defs><linearGradient id="grad1_1" x1="43.8%" y1="0%" x2="100%" y2="100%"><stop offset="14.444444444444446%" stop-color="#719fd7" stop-opacity="1"></stop><stop offset="85.55555555555554%" stop-color="#bad8e9" stop-opacity="1"></stop></linearGradient></defs><defs><linearGradient id="grad2_0" x1="0%" y1="0%" x2="56.3%" y2="100%"><stop offset="14.444444444444446%" stop-color="#719fd7" stop-opacity="1"></stop><stop offset="85.55555555555554%" stop-color="#719fd7" stop-opacity="1"></stop></linearGradient></defs><defs><linearGradient id="grad2_1" x1="0%" y1="0%" x2="56.3%" y2="100%"><stop offset="14.444444444444446%" stop-color="#bad8e9" stop-opacity="1"></stop><stop offset="85.55555555555554%" stop-color="#719fd7" stop-opacity="1"></stop></linearGradient></defs><g transform="translate(960, 0)"><path d="M0 189C-23 184.6 -46 180.2 -71.6 172.8C-97.1 165.3 -125.2 154.8 -133.6 133.6C-142.1 112.5 -130.8 80.7 -136.7 56.6C-142.7 32.6 -165.8 16.3 -189 0L0 0Z" fill="#91bce0"></path><path d="M0 94.5C-11.5 92.3 -23 90.1 -35.8 86.4C-48.6 82.7 -62.6 77.4 -66.8 66.8C-71 56.2 -65.4 40.3 -68.4 28.3C-71.3 16.3 -82.9 8.1 -94.5 0L0 0Z" fill="#719fd7"></path></g><g transform="translate(0, 540)"><path d="M0 -189C27.2 -189 54.5 -188.9 72.3 -174.6C90.2 -160.3 98.7 -131.8 112.4 -112.4C126.2 -93.1 145.3 -83 158.9 -65.8C172.6 -48.6 180.8 -24.3 189 0L0 0Z" fill="#91bce0"></path><path d="M0 -94.5C13.6 -94.5 27.2 -94.5 36.2 -87.3C45.1 -80.2 49.3 -65.9 56.2 -56.2C63.1 -46.6 72.6 -41.5 79.5 -32.9C86.3 -24.3 90.4 -12.2 94.5 0L0 0Z" fill="#719fd7"></path></g></svg>