<svg id="visual" viewBox="0 0 960 540" width="960" height="540" xmlns="http://www.w3.org/2000/svg" xmlns:xlink="http://www.w3.org/1999/xlink" version="1.1"><rect x="0" y="0" width="960" height="540" fill="#FFFCF2"></rect><defs><linearGradient id="grad1_0" x1="43.8%" y1="0%" x2="100%" y2="100%"><stop offset="14.444444444444446%" stop-color="#ccc5b9" stop-opacity="1"></stop><stop offset="85.55555555555554%" stop-color="#ccc5b9" stop-opacity="1"></stop></linearGradient></defs><defs><linearGradient id="grad1_1" x1="43.8%" y1="0%" x2="100%" y2="100%"><stop offset="14.444444444444446%" stop-color="#ccc5b9" stop-opacity="1"></stop><stop offset="85.55555555555554%" stop-color="#fffcf2" stop-opacity="1"></stop></linearGradient></defs><defs><linearGradient id="grad2_0" x1="0%" y1="0%" x2="56.3%" y2="100%"><stop offset="14.444444444444446%" stop-color="#ccc5b9" stop-opacity="1"></stop><stop offset="85.55555555555554%" stop-color="#ccc5b9" stop-opacity="1"></stop></linearGradient></defs><defs><linearGradient id="grad2_1" x1="0%" y1="0%" x2="56.3%" y2="100%"><stop offset="14.444444444444446%" stop-color="#fffcf2" stop-opacity="1"></stop><stop offset="85.55555555555554%" stop-color="#ccc5b9" stop-opacity="1"></stop></linearGradient></defs><g transform="translate(960, 0)"><path d="M0 216C-30.3 210.1 -60.6 204.2 -76.5 184.8C-92.5 165.4 -94.2 132.5 -116 116C-137.7 99.4 -179.5 99.3 -199.6 82.7C-219.6 66.1 -217.8 33 -216 0L0 0Z" fill="#e5e0d5"></path><path d="M0 108C-15.1 105 -30.3 102.1 -38.3 92.4C-46.3 82.7 -47.1 66.2 -58 58C-68.9 49.7 -89.8 49.6 -99.8 41.3C-109.8 33 -108.9 16.5 -108 0L0 0Z" fill="#ccc5b9"></path></g><g transform="translate(0, 540)"><path d="M0 -216C32.1 -217.6 64.2 -219.3 82.7 -199.6C101.1 -179.8 105.8 -138.7 113.1 -113.1C120.4 -87.6 130.3 -77.5 147.8 -61.2C165.4 -45 190.7 -22.5 216 0L0 0Z" fill="#e5e0d5"></path><path d="M0 -108C16.1 -108.8 32.1 -109.6 41.3 -99.8C50.5 -89.9 52.9 -69.4 56.6 -56.6C60.2 -43.8 65.1 -38.7 73.9 -30.6C82.7 -22.5 95.3 -11.2 108 0L0 0Z" fill="#ccc5b9"></path></g></svg>