<svg id="visual" viewBox="0 0 540 960" width="540" height="960" xmlns="http://www.w3.org/2000/svg" xmlns:xlink="http://www.w3.org/1999/xlink" version="1.1"><rect x="0" y="0" width="540" height="960" fill="#bad8e9"></rect><defs><linearGradient id="grad1_0" x1="0%" y1="0%" x2="100%" y2="100%"><stop offset="30%" stop-color="#719fd7" stop-opacity="1"></stop><stop offset="70%" stop-color="#719fd7" stop-opacity="1"></stop></linearGradient></defs><defs><linearGradient id="grad1_1" x1="0%" y1="0%" x2="100%" y2="100%"><stop offset="30%" stop-color="#719fd7" stop-opacity="1"></stop><stop offset="70%" stop-color="#bad8e9" stop-opacity="1"></stop></linearGradient></defs><defs><linearGradient id="grad2_0" x1="0%" y1="0%" x2="100%" y2="100%"><stop offset="30%" stop-color="#719fd7" stop-opacity="1"></stop><stop offset="70%" stop-color="#719fd7" stop-opacity="1"></stop></linearGradient></defs><defs><linearGradient id="grad2_1" x1="0%" y1="0%" x2="100%" y2="100%"><stop offset="30%" stop-color="#bad8e9" stop-opacity="1"></stop><stop offset="70%" stop-color="#719fd7" stop-opacity="1"></stop></linearGradient></defs><g transform="translate(540, 0)"><path d="M0 189C-17.3 170.4 -34.6 151.7 -60.5 146C-86.3 140.2 -120.6 147.3 -133.6 133.6C-146.7 119.9 -138.4 85.4 -144.1 59.7C-149.8 34 -169.4 17 -189 0L0 0Z" fill="#91bce0"></path><path d="M0 94.5C-8.7 85.2 -17.3 75.9 -30.2 73C-43.1 70.1 -60.3 73.7 -66.8 66.8C-73.3 60 -69.2 42.7 -72.1 29.8C-74.9 17 -84.7 8.5 -94.5 0L0 0Z" fill="#719fd7"></path></g><g transform="translate(0, 960)"><path d="M0 -189C25.9 -183.6 51.9 -178.1 67.4 -162.6C82.8 -147.1 87.8 -121.5 106.8 -106.8C125.7 -92.1 158.6 -88.3 174.6 -72.3C190.6 -56.4 189.8 -28.2 189 0L0 0Z" fill="#91bce0"></path><path d="M0 -94.5C13 -91.8 25.9 -89.1 33.7 -81.3C41.4 -73.5 43.9 -60.7 53.4 -53.4C62.9 -46 79.3 -44.2 87.3 -36.2C95.3 -28.2 94.9 -14.1 94.5 0L0 0Z" fill="#719fd7"></path></g></svg>