<svg style="shape-rendering:geometricPrecision; text-rendering:geometricPrecision; image-rendering:optimizeQuality; fill-rule:evenodd; clip-rule:evenodd" xmlns="http://www.w3.org/2000/svg" viewBox="182.8 70.55 352.72 398.93">
  <g>
    <path style="opacity:0.992" fill="#c67c72" d="M 363.5,72.5 C 359.167,72.5 354.833,72.5 350.5,72.5C 354.804,69.9099 359.137,69.9099 363.5,72.5 Z"/>
  </g>
  <g>
    <path style="opacity:0.996" fill="#d29891" d="M 401.5,73.5 C 394.863,72.7243 388.196,72.391 381.5,72.5C 388.222,70.1644 394.888,70.4977 401.5,73.5 Z"/>
  </g>
  <g>
    <path style="opacity:0.992" fill="#bf6b5d" d="M 401.5,73.5 C 405.297,73.8723 408.63,75.2057 411.5,77.5C 408.624,77.0728 405.791,76.4062 403,75.5C 401.97,75.1639 401.47,74.4972 401.5,73.5 Z"/>
  </g>
  <g>
    <path style="opacity:0.992" fill="#c67d74" d="M 350.5,72.5 C 347.794,74.5032 344.794,76.1699 341.5,77.5C 333.764,77.2055 326.097,77.2055 318.5,77.5C 326.936,75.8711 335.603,75.0378 344.5,75C 345.978,72.9614 347.978,72.1281 350.5,72.5 Z"/>
  </g>
  <g>
    <path style="opacity:0.996" fill="#d69f99" d="M 411.5,77.5 C 413.898,77.2594 415.898,77.9261 417.5,79.5C 415.214,79.405 413.214,78.7384 411.5,77.5 Z"/>
  </g>
  <g>
    <path style="opacity:0.996" fill="#dcaea9" d="M 318.5,77.5 C 316.162,79.0395 313.495,79.7062 310.5,79.5C 312.905,78.2318 315.572,77.5651 318.5,77.5 Z"/>
  </g>
  <g>
    <path style="opacity:0.992" fill="#c6786c" d="M 417.5,79.5 C 421.052,80.7911 424.386,82.4578 427.5,84.5C 424.763,83.969 422.096,83.1356 419.5,82C 418.244,81.5831 417.577,80.7498 417.5,79.5 Z"/>
  </g>
  <g>
    <path style="opacity:0.996" fill="#d39a93" d="M 303.5,80.5 C 303.38,81.5862 302.713,82.2528 301.5,82.5C 298.218,83.4877 294.885,84.1543 291.5,84.5C 295.303,82.8751 299.303,81.5418 303.5,80.5 Z"/>
  </g>
  <g>
    <path style="opacity:0.996" fill="#d2908a" d="M 429.5,85.5 C 432.48,86.3234 435.147,87.6567 437.5,89.5C 434.173,89.1706 431.507,87.8373 429.5,85.5 Z"/>
  </g>
  <g>
    <path style="opacity:0.996" fill="#e7c5c2" d="M 279.5,89.5 C 278.713,91.1042 277.38,91.7709 275.5,91.5C 276.514,90.3263 277.847,89.6596 279.5,89.5 Z"/>
  </g>
  <g>
    <path style="opacity:0.992" fill="#ce8b81" d="M 437.5,89.5 C 441.593,90.3824 445.26,92.049 448.5,94.5C 445.521,93.6827 442.521,92.8494 439.5,92C 438.244,91.5831 437.577,90.7498 437.5,89.5 Z"/>
  </g>
  <g>
    <path style="opacity:0.992" fill="#c97c70" d="M 275.5,91.5 C 274.191,94.4507 271.857,95.7841 268.5,95.5C 270.635,93.9291 272.968,92.5957 275.5,91.5 Z"/>
  </g>
  <g>
    <path style="opacity:0.996" fill="#e0b8b2" d="M 464.5,103.5 C 466.027,103.427 467.027,104.094 467.5,105.5C 465.973,105.573 464.973,104.906 464.5,103.5 Z"/>
  </g>
  <g>
    <path style="opacity:0.992" fill="#d1948e" d="M 470.5,107.5 C 472.9,109.296 474.567,111.63 475.5,114.5C 473.1,112.704 471.433,110.37 470.5,107.5 Z"/>
  </g>
  <g>
    <path style="opacity:0.996" fill="#d2948c" d="M 475.5,114.5 C 476.906,114.973 477.573,115.973 477.5,117.5C 476.094,117.027 475.427,116.027 475.5,114.5 Z"/>
  </g>
  <g>
    <path style="opacity:0.992" fill="#b75c4d" d="M 242.5,114.5 C 240.533,118.624 237.2,120.958 232.5,121.5C 235.475,118.677 238.808,116.344 242.5,114.5 Z"/>
  </g>
  <g>
    <path style="opacity:0.992" fill="#d08f86" d="M 480.5,121.5 C 482.727,122.401 483.727,124.067 483.5,126.5C 482.11,125.101 481.11,123.434 480.5,121.5 Z"/>
  </g>
  <g>
    <path style="opacity:0.996" fill="#d6a29b" d="M 228.5,124.5 C 227.167,126.5 225.5,128.167 223.5,129.5C 224.167,126.833 225.833,125.167 228.5,124.5 Z"/>
  </g>
  <g>
    <path style="opacity:0.996" fill="#d7a19a" d="M 485.5,130.5 C 486.906,130.973 487.573,131.973 487.5,133.5C 486.094,133.027 485.427,132.027 485.5,130.5 Z"/>
  </g>
  <g>
    <path style="opacity:0.992" fill="#c98177" d="M 223.5,129.5 C 221.61,132.654 219.277,135.321 216.5,137.5C 217.929,133.929 220.263,131.262 223.5,129.5 Z"/>
  </g>
  <g>
    <path style="opacity:0.992" fill="#d49890" d="M 490.5,137.5 C 494.592,141.258 497.926,145.591 500.5,150.5C 496.408,146.742 493.074,142.409 490.5,137.5 Z"/>
  </g>
  <g>
    <path style="opacity:0.992" fill="#c37569" d="M 216.5,137.5 C 215.753,140.362 214.086,142.362 211.5,143.5C 212.701,141.091 214.367,139.091 216.5,137.5 Z"/>
  </g>
  <g>
    <path style="opacity:0.996" fill="#d1958f" d="M 211.5,143.5 C 211.155,146.198 209.822,148.198 207.5,149.5C 208.34,147.147 209.674,145.147 211.5,143.5 Z"/>
  </g>
  <g>
    <path style="opacity:0.992" fill="#fcd670" d="M 491.5,145.5 C 493.859,148.205 495.859,151.205 497.5,154.5C 497.26,159.089 496.094,163.422 494,167.5C 493.667,167.167 493.333,166.833 493,166.5C 490.768,159.479 490.268,152.479 491.5,145.5 Z"/>
  </g>
  <g>
    <path style="opacity: 0.992; fill: rgb(153, 30, 11);" d="M 350.5 72.5 C 354.833 72.5 359.167 72.5 363.5 72.5 C 364.514 73.674 365.847 74.34 367.5 74.5 C 372.117 73.513 376.784 72.846 381.5 72.5 C 388.196 72.391 394.863 72.724 401.5 73.5 C 401.47 74.497 401.97 75.164 403 75.5 C 405.791 76.406 408.624 77.073 411.5 77.5 C 413.214 78.738 415.214 79.405 417.5 79.5 C 417.577 80.75 418.244 81.583 419.5 82 C 422.096 83.136 424.763 83.969 427.5 84.5 C 428.167 84.833 428.833 85.167 429.5 85.5 C 431.507 87.837 434.173 89.171 437.5 89.5 C 437.577 90.75 438.244 91.583 439.5 92 C 442.521 92.849 445.521 93.683 448.5 94.5 C 454.457 96.476 459.79 99.476 464.5 103.5 C 464.973 104.906 465.973 105.573 467.5 105.5 C 468.5 106.167 469.5 106.833 470.5 107.5 C 471.433 110.37 473.1 112.704 475.5 114.5 C 475.427 116.027 476.094 117.027 477.5 117.5 C 479.262 118.262 480.262 119.596 480.5 121.5 C 481.11 123.434 482.11 125.101 483.5 126.5 C 484.674 127.514 485.34 128.847 485.5 130.5 C 485.427 132.027 486.094 133.027 487.5 133.5 C 487.414 134.496 487.748 135.329 488.5 136 C 487.5 136.5 486.5 137 485.5 137.5 C 484.182 144.322 484.182 150.989 485.5 157.5 C 485.263 161.41 486.096 165.077 488 168.5 C 495.686 177.849 503.686 186.849 512 195.5 C 517.324 208.146 523.158 220.479 529.5 232.5 C 529.281 233.675 529.614 234.675 530.5 235.5 C 531.817 229.012 531.817 222.678 530.5 216.5 C 530.5 215.167 530.5 213.833 530.5 212.5 C 530.215 210.712 530.548 209.045 531.5 207.5 C 532.182 208.243 532.849 208.909 533.5 209.5 C 534.27 223.82 534.604 238.153 534.5 252.5 C 533.532 254.607 533.198 256.941 533.5 259.5 C 533.5 259.833 533.5 260.167 533.5 260.5 C 532.351 260.791 531.684 261.624 531.5 263 C 530.228 268.797 529.228 274.631 528.5 280.5 C 526.124 284.987 524.791 289.987 524.5 295.5 C 523.691 297.028 523.024 298.694 522.5 300.5 C 520.787 299.365 520.12 297.698 520.5 295.5 C 522.743 289.445 523.91 283.112 524 276.5 C 518.298 295.592 510.631 313.925 501 331.5 C 492.652 338.842 483.485 345.008 473.5 350 C 465.717 355.789 460.217 363.289 457 372.5 C 454.787 377.304 453.287 382.304 452.5 387.5 C 456.615 386.905 460.615 385.905 464.5 384.5 C 464.334 379.489 464.501 374.489 465 369.5 C 466.218 363.617 469.385 359.117 474.5 356 C 475.635 355.251 476.635 355.417 477.5 356.5 C 475.033 362.142 474.033 367.809 474.5 373.5 C 475.791 373.263 476.791 373.596 477.5 374.5 C 477.167 375.833 476.833 377.167 476.5 378.5 C 475.833 379.167 475.167 379.833 474.5 380.5 C 472.659 381.402 471.326 382.736 470.5 384.5 C 470.158 385.338 469.492 385.672 468.5 385.5 C 466.632 386.263 464.965 387.263 463.5 388.5 C 462.486 389.674 461.153 390.34 459.5 390.5 C 457.326 390.75 455.659 391.75 454.5 393.5 C 454.167 394.5 453.5 395.167 452.5 395.5 C 451.861 396.097 451.528 396.93 451.5 398 C 451.684 399.376 452.351 400.209 453.5 400.5 C 456.883 408.601 455.883 416.101 450.5 423 C 448.323 424.202 445.989 424.702 443.5 424.5 C 439.076 424.348 434.743 423.681 430.5 422.5 C 427.636 420.977 425.969 418.643 425.5 415.5 C 426.814 409.669 424.647 406.002 419 404.5 C 417.624 404.684 416.791 405.351 416.5 406.5 C 415.833 406.5 415.167 406.5 414.5 406.5 C 408.823 407.192 403.156 408.025 397.5 409 C 396.944 409.383 396.611 409.883 396.5 410.5 C 389.604 411.756 382.604 412.423 375.5 412.5 C 374.833 412.5 374.167 412.5 373.5 412.5 C 372.167 412.167 370.833 411.833 369.5 411.5 C 376.479 401.419 386.146 397.419 398.5 399.5 C 406.486 397.621 414.486 395.787 422.5 394 C 425.186 387.097 427.186 379.931 428.5 372.5 C 432.591 357.608 426.925 349.774 411.5 349 C 421.515 346.758 428.682 350.258 433 359.5 C 433.667 365.167 433.667 370.833 433 376.5 C 430.014 385.762 428.181 395.262 427.5 405 C 426.966 409.895 428.299 414.061 431.5 417.5 C 433.305 420.403 435.971 421.736 439.5 421.5 C 444.119 421.366 447.619 419.366 450 415.5 C 450.667 411.167 450.667 406.833 450 402.5 C 446.513 390.218 443.179 377.885 440 365.5 C 439.501 360.177 439.334 354.844 439.5 349.5 C 441.067 344.34 444.067 340.34 448.5 337.5 C 450.971 336.269 452.638 336.269 453.5 337.5 C 448.91 338.921 445.744 341.921 444 346.5 C 442.463 356.473 444.129 365.806 449 374.5 C 450.009 372.975 450.509 371.308 450.5 369.5 C 453.381 365.58 455.714 361.246 457.5 356.5 C 460.651 352.849 463.984 349.349 467.5 346 C 474.982 341.502 482.482 337.002 490 332.5 C 495.505 320.487 498.339 307.82 498.5 294.5 C 500.307 289.94 501.807 285.273 503 280.5 C 504.049 279.483 505.216 279.316 506.5 280 C 505.745 282.175 504.912 284.341 504 286.5 C 503.333 294.5 503.333 302.5 504 310.5 C 506.713 305.705 509.046 300.705 511 295.5 C 515.004 282.813 519.004 270.146 523 257.5 C 524.861 249.804 524.861 242.137 523 234.5 C 520.188 228.21 516.855 222.21 513 216.5 C 510.019 210.399 507.519 204.065 505.5 197.5 C 501.799 192.388 497.299 188.054 492 184.5 C 487.6 180.033 483.934 175.033 481 169.5 C 479.003 157.595 478.003 145.595 478 133.5 C 475.532 128.011 471.365 124.511 465.5 123 C 457.183 121.88 448.85 120.88 440.5 120 C 424.651 112.096 408.318 105.429 391.5 100 C 383.353 94.061 375.687 87.395 368.5 80 C 365.758 78.88 363.258 77.38 361 75.5 C 355.804 73.778 351.304 74.778 347.5 78.5 C 346.167 79.167 345.167 80.167 344.5 81.5 C 338.224 86.107 332.557 91.441 327.5 97.5 C 324.128 99.186 320.795 100.853 317.5 102.5 C 306.495 102.333 295.495 102.5 284.5 103 C 282.026 103.037 280.026 103.87 278.5 105.5 C 276.973 105.427 275.973 106.094 275.5 107.5 C 270.449 110.906 266.783 115.572 264.5 121.5 C 264.833 121.833 265.167 122.167 265.5 122.5 C 272.305 119.174 278.972 118.84 285.5 121.5 C 274.889 124.26 265.889 129.76 258.5 138 C 248.777 144.067 238.443 148.733 227.5 152 C 222.421 154.294 217.921 157.461 214 161.5 C 211.967 166.6 210.133 171.767 208.5 177 C 207.314 188.18 205.647 199.18 203.5 210 C 206.661 234.772 210.161 259.606 214 284.5 C 219.053 296.088 226.22 306.255 235.5 315 C 237.078 316.094 238.745 316.928 240.5 317.5 C 241.278 318.156 241.944 318.989 242.5 320 C 242.164 321.03 241.497 321.53 240.5 321.5 C 236.079 321.223 232.246 319.556 229 316.5 C 226.078 325.928 222.745 335.262 219 344.5 C 218.064 348.114 217.564 351.78 217.5 355.5 C 216.041 369.182 216.207 382.849 218 396.5 C 219.7 401.123 221.867 405.456 224.5 409.5 C 225.167 409.833 225.833 410.167 226.5 410.5 C 227.713 410.253 228.38 409.586 228.5 408.5 C 229.718 403.288 229.551 397.954 228 392.5 C 224.963 384.892 222.463 377.225 220.5 369.5 C 219.692 358.584 220.859 347.917 224 337.5 C 227.012 335.452 230.178 335.119 233.5 336.5 C 234.063 343.351 235.063 350.017 236.5 356.5 C 236.97 357.693 237.97 358.36 239.5 358.5 C 252.763 354.88 261.596 359.547 266 372.5 C 266.846 379.243 268.013 385.91 269.5 392.5 C 269.5 392.833 269.5 393.167 269.5 393.5 C 269.5 393.833 269.5 394.167 269.5 394.5 C 270.578 399.116 272.911 402.949 276.5 406 C 282.089 408.778 286.589 407.612 290 402.5 C 293.891 393.774 300.058 387.107 308.5 382.5 C 321.175 376.632 334.508 373.965 348.5 374.5 C 348.586 375.496 348.252 376.329 347.5 377 C 341.451 378.395 335.451 379.895 329.5 381.5 C 330.09 382.799 331.09 383.632 332.5 384 C 342.667 386.167 348.833 392.333 351 402.5 C 351.444 408.845 351.277 415.178 350.5 421.5 C 345.981 434.664 344.314 448.331 345.5 462.5 C 344.778 463.551 343.778 464.218 342.5 464.5 C 342.334 456.826 342.5 449.159 343 441.5 C 344.751 434.079 346.251 426.579 347.5 419 C 347.858 415.867 346.525 414.033 343.5 413.5 C 342.235 412.774 340.735 412.774 339 413.5 C 337.624 413.684 336.791 414.351 336.5 415.5 C 331.228 416.4 325.895 416.733 320.5 416.5 C 320.389 415.883 320.056 415.383 319.5 415 C 315.855 414.281 312.188 413.781 308.5 413.5 C 305.579 413.717 302.913 413.051 300.5 411.5 C 298.19 409.509 295.356 408.176 292 407.5 C 291.235 407.57 290.735 407.903 290.5 408.5 C 289.942 409.79 288.942 410.623 287.5 411 C 283.745 411.755 280.078 411.589 276.5 410.5 C 273.5 408.167 270.833 405.5 268.5 402.5 C 266.574 398.903 263.907 395.903 260.5 393.5 C 259.167 392.5 257.833 391.5 256.5 390.5 C 256.5 389.5 256.5 388.5 256.5 387.5 C 258.042 388.301 259.708 388.634 261.5 388.5 C 261.605 381.455 260.105 374.789 257 368.5 C 256.292 367.619 255.458 366.953 254.5 366.5 C 252.544 364.452 250.044 363.452 247 363.5 C 242.52 364.432 238.02 364.599 233.5 364 C 230.143 359.121 228.309 353.621 228 347.5 C 226.675 351.428 226.342 355.428 227 359.5 C 229.669 363 232.502 366.333 235.5 369.5 C 235.5 370.5 235.5 371.5 235.5 372.5 C 234.5 372.5 233.5 372.5 232.5 372.5 C 230.976 371.826 229.642 370.826 228.5 369.5 C 227.893 369.624 227.56 369.957 227.5 370.5 C 226.235 371.514 225.569 373.014 225.5 375 C 225.569 376.986 226.235 378.486 227.5 379.5 C 227.5 379.833 227.5 380.167 227.5 380.5 C 227.796 382.403 228.463 384.07 229.5 385.5 C 229.59 387.696 229.923 389.863 230.5 392 C 230.684 393.376 231.351 394.209 232.5 394.5 C 234.696 400.317 234.696 406.317 232.5 412.5 C 228.85 413.675 225.183 413.675 221.5 412.5 C 219.133 410.802 217.466 408.469 216.5 405.5 C 215.965 401.489 215.298 397.489 214.5 393.5 C 214.36 391.97 213.693 390.97 212.5 390.5 C 211.24 381.83 211.24 373.163 212.5 364.5 C 214.275 360.259 215.275 355.592 215.5 350.5 C 214.794 346.046 213.461 342.046 211.5 338.5 C 211.241 335.728 210.241 333.395 208.5 331.5 C 207.833 328.167 207.167 324.833 206.5 321.5 C 205.736 318.982 204.736 316.649 203.5 314.5 C 202.326 313.486 201.66 312.153 201.5 310.5 C 200.039 305.403 198.039 300.737 195.5 296.5 C 195.59 293.848 194.924 291.515 193.5 289.5 C 193.428 286.807 193.095 284.14 192.5 281.5 C 192.36 279.97 191.693 278.97 190.5 278.5 C 189.596 277.791 189.263 276.791 189.5 275.5 C 189.147 271.087 188.314 266.754 187 262.5 C 186.617 261.944 186.117 261.611 185.5 261.5 C 185.5 261.167 185.5 260.833 185.5 260.5 C 184.288 253.557 183.621 246.557 183.5 239.5 C 185.118 236.829 185.785 233.829 185.5 230.5 C 186.586 230.38 187.253 229.713 187.5 228.5 C 188.351 224.759 189.351 221.092 190.5 217.5 C 190.833 216.833 191.167 216.167 191.5 215.5 C 193.851 213.159 194.851 210.159 194.5 206.5 C 195.269 194.321 195.936 181.987 196.5 169.5 C 196.66 167.847 197.326 166.514 198.5 165.5 C 200.008 163.819 201.008 161.819 201.5 159.5 C 203 155.827 205 152.494 207.5 149.5 C 209.822 148.198 211.155 146.198 211.5 143.5 C 214.086 142.362 215.753 140.362 216.5 137.5 C 219.277 135.321 221.61 132.654 223.5 129.5 C 225.5 128.167 227.167 126.5 228.5 124.5 C 229.795 123.512 231.128 122.512 232.5 121.5 C 237.2 120.958 240.533 118.624 242.5 114.5 C 250.625 107.368 259.292 101.034 268.5 95.5 C 271.857 95.784 274.191 94.451 275.5 91.5 C 277.38 91.771 278.713 91.104 279.5 89.5 C 283.203 87.321 287.203 85.655 291.5 84.5 C 294.885 84.154 298.218 83.488 301.5 82.5 C 302.713 82.253 303.38 81.586 303.5 80.5 C 305.806 80.007 308.139 79.674 310.5 79.5 C 313.495 79.706 316.162 79.04 318.5 77.5 C 326.097 77.206 333.764 77.206 341.5 77.5 C 344.794 76.17 347.794 74.503 350.5 72.5 Z"/>
  </g>
  <g>
    <path style="opacity:0.992" fill="#921f10" d="M 342.5,158.5 C 333.42,162.808 324.087,166.642 314.5,170C 311.183,170.977 308.516,170.144 306.5,167.5C 304.865,163.869 305.532,160.703 308.5,158C 315.25,155.194 321.917,152.194 328.5,149C 333.486,148.329 337.986,149.496 342,152.5C 342.495,154.473 342.662,156.473 342.5,158.5 Z"/>
  </g>
  <g>
    <path style="opacity:0.992" fill="#f9b63e" d="M 260.5,112.5 C 257.345,122.297 252.012,130.797 244.5,138C 235.949,141.853 227.282,145.52 218.5,149C 216.004,150.666 213.671,152.5 211.5,154.5C 210.833,154.5 210.5,154.167 210.5,153.5C 212.762,148.91 215.762,144.91 219.5,141.5C 220.612,142.372 221.946,142.372 223.5,141.5C 230.32,138.618 236.987,135.451 243.5,132C 245,130.5 246.5,129 248,127.5C 249.459,121.915 251.959,116.915 255.5,112.5C 258.038,107.639 259.704,107.639 260.5,112.5 Z"/>
  </g>
  <g>
    <path style="opacity:0.992" fill="#fad272" d="M 255.5,112.5 C 251.959,116.915 249.459,121.915 248,127.5C 246.5,129 245,130.5 243.5,132C 236.987,135.451 230.32,138.618 223.5,141.5C 221.946,142.372 220.612,142.372 219.5,141.5C 220.581,139.236 221.915,137.069 223.5,135C 228.478,133.672 233.478,132.505 238.5,131.5C 240.912,131.306 241.912,129.973 241.5,127.5C 247.597,125.964 250.264,121.964 249.5,115.5C 249.5,114.167 250.167,113.5 251.5,113.5C 252.833,113.167 254.167,112.833 255.5,112.5 Z"/>
  </g>
  <g>
    <path style="opacity:0.992" fill="#fd8c9a" d="M 349.5,78.5 C 362.619,81.0887 371.452,89.0887 376,102.5C 379.169,106.7 382.669,110.533 386.5,114C 388.927,114.902 391.26,115.736 393.5,116.5C 387.633,119.228 385.133,123.895 386,130.5C 384.667,131.833 383.333,131.833 382,130.5C 381.667,126.167 381.333,121.833 381,117.5C 371.943,113.531 366.276,116.531 364,126.5C 363.535,136.042 364.702,145.375 367.5,154.5C 367.471,157.269 366.805,159.603 365.5,161.5C 361.905,158.931 358.239,156.264 354.5,153.5C 356.169,146.944 357.669,140.277 359,133.5C 359.667,127.833 359.667,122.167 359,116.5C 355.45,110.279 350.617,108.612 344.5,111.5C 342.405,111.76 341.072,112.926 340.5,115C 343.687,117.892 346.52,121.059 349,124.5C 350.072,130.455 350.572,136.455 350.5,142.5C 349.514,146.443 348.848,150.443 348.5,154.5C 347.566,155.568 347.232,156.901 347.5,158.5C 345.833,158.5 344.167,158.5 342.5,158.5C 342.662,156.473 342.495,154.473 342,152.5C 337.986,149.496 333.486,148.329 328.5,149C 321.917,152.194 315.25,155.194 308.5,158C 305.532,160.703 304.865,163.869 306.5,167.5C 296.009,174.477 286.509,182.81 278,192.5C 272.619,201.857 270.619,211.857 272,222.5C 273.122,224.624 274.622,226.457 276.5,228C 275.269,229.405 273.936,230.571 272.5,231.5C 267.951,233.39 263.951,236.056 260.5,239.5C 256.97,236.353 253.303,236.019 249.5,238.5C 248.853,249.962 248.187,261.295 247.5,272.5C 247.826,268.116 247.492,263.783 246.5,259.5C 244.473,264.754 242.306,264.754 240,259.5C 239.249,264.572 239.582,269.572 241,274.5C 242.699,275.406 244.533,275.739 246.5,275.5C 243.3,278.409 240.8,277.742 239,273.5C 238.667,262.833 238.333,252.167 238,241.5C 237.479,236.554 235.145,232.888 231,230.5C 230.5,230.667 230,230.833 229.5,231C 233.692,235.24 235.358,240.407 234.5,246.5C 233.335,255.814 232.835,265.147 233,274.5C 234.972,279.851 238.639,283.185 244,284.5C 245.533,284.227 247.033,283.894 248.5,283.5C 250.736,282.611 252.736,281.278 254.5,279.5C 257.229,273.646 259.562,267.646 261.5,261.5C 264.437,259.187 267.77,257.854 271.5,257.5C 273.49,269.814 277.823,281.147 284.5,291.5C 278.247,289.85 271.913,289.017 265.5,289C 260.55,295.799 262.217,300.465 270.5,303C 274.946,304.371 279.446,305.538 284,306.5C 287.108,305.966 289.941,304.966 292.5,303.5C 296.736,305.878 300.736,308.711 304.5,312C 302.942,312.21 301.609,312.71 300.5,313.5C 298.596,313.738 297.262,314.738 296.5,316.5C 295.883,316.611 295.383,316.944 295,317.5C 294.784,325.036 294.284,332.536 293.5,340C 294.996,341.331 296.329,342.831 297.5,344.5C 296.147,345.524 295.48,346.857 295.5,348.5C 298.581,346.578 301.915,345.411 305.5,345C 306.167,345.333 306.833,345.667 307.5,346C 304.094,346.475 301.427,348.142 299.5,351C 302.098,350.578 304.764,350.578 307.5,351C 306.748,351.671 306.414,352.504 306.5,353.5C 300.258,355.557 293.924,357.724 287.5,360C 286.556,362.719 286.223,365.552 286.5,368.5C 286.727,370.997 288.06,372.664 290.5,373.5C 289.5,374.333 288.5,375.167 287.5,376C 292.156,378.058 296.656,377.891 301,375.5C 301.667,376.167 301.667,376.833 301,377.5C 298.293,379.936 295.127,381.436 291.5,382C 289.957,383.878 288.124,385.378 286,386.5C 285.667,386.167 285.333,385.833 285,385.5C 281.079,390.589 275.912,393.256 269.5,393.5C 269.5,393.167 269.5,392.833 269.5,392.5C 276.226,368.717 267.56,353.884 243.5,348C 241.65,345.982 239.65,344.149 237.5,342.5C 236.507,347.12 236.173,351.786 236.5,356.5C 235.063,350.017 234.063,343.351 233.5,336.5C 233.389,335.883 233.056,335.383 232.5,335C 235.512,334.22 238.345,333.053 241,331.5C 241.388,328.151 241.221,324.817 240.5,321.5C 241.497,321.53 242.164,321.03 242.5,320C 241.944,318.989 241.278,318.156 240.5,317.5C 241.376,317.631 242.043,317.298 242.5,316.5C 239.411,312.594 236.577,308.594 234,304.5C 222.811,279.419 215.811,253.086 213,225.5C 212.003,212.409 212.67,199.409 215,186.5C 217.18,180.792 220.346,175.792 224.5,171.5C 224.334,176.844 224.501,182.177 225,187.5C 225.278,188.416 225.778,189.082 226.5,189.5C 229.742,192.645 233.408,193.145 237.5,191C 242.041,184.038 246.207,176.871 250,169.5C 251.368,163.87 249.368,162.204 244,164.5C 242.832,165.509 241.665,166.509 240.5,167.5C 239.537,164.541 237.871,162.208 235.5,160.5C 238.647,160.263 241.647,159.43 244.5,158C 250.79,155.188 256.79,151.855 262.5,148C 269.473,141.027 276.473,134.027 283.5,127C 285.473,126.505 287.473,126.338 289.5,126.5C 290.828,125.493 291.828,124.16 292.5,122.5C 290.257,121.526 287.924,121.192 285.5,121.5C 278.972,118.84 272.305,119.174 265.5,122.5C 265.167,122.167 264.833,121.833 264.5,121.5C 266.783,115.572 270.449,110.906 275.5,107.5C 274.19,109.148 272.857,110.814 271.5,112.5C 272.667,112.833 273.833,113.167 275,113.5C 287.817,112.734 300.65,112.234 313.5,112C 323.272,110.364 331.772,106.197 339,99.5C 340.954,95.7184 343.454,92.3851 346.5,89.5C 347.535,86.0025 348.869,82.6692 350.5,79.5C 350.376,78.8933 350.043,78.56 349.5,78.5 Z"/>
  </g>
  <g>
    <path style="opacity:0.992" fill="#60745a" d="M 328.5,153.5 C 325.947,155.584 322.947,156.917 319.5,157.5C 322.053,155.416 325.053,154.083 328.5,153.5 Z"/>
  </g>
  <g>
    <path style="opacity:0.992" fill="#941e0c" d="M 289.5,126.5 C 294.648,127.021 299.648,128.021 304.5,129.5C 305.829,135.134 306.663,140.801 307,146.5C 304.774,150.861 301.274,152.361 296.5,151C 292.91,146.416 289.743,141.583 287,136.5C 286.333,133.833 286.333,131.167 287,128.5C 287.995,127.934 288.828,127.267 289.5,126.5 Z"/>
  </g>
  <g>
    <path style="opacity:0.992" fill="#85bc32" d="M 291.5,129.5 C 294.642,129.799 296.809,131.466 298,134.5C 300.877,138.337 302.377,142.67 302.5,147.5C 301.127,147.657 299.793,147.49 298.5,147C 293.155,142.175 290.822,136.342 291.5,129.5 Z"/>
  </g>
  <g>
    <path style="opacity:0.992" fill="#fbabb4" d="M 285.5,121.5 C 287.924,121.192 290.257,121.526 292.5,122.5C 291.828,124.16 290.828,125.493 289.5,126.5C 287.473,126.338 285.473,126.505 283.5,127C 276.473,134.027 269.473,141.027 262.5,148C 256.79,151.855 250.79,155.188 244.5,158C 241.647,159.43 238.647,160.263 235.5,160.5C 231.633,158.935 228.633,159.935 226.5,163.5C 224.777,165.78 224.111,168.447 224.5,171.5C 220.346,175.792 217.18,180.792 215,186.5C 212.67,199.409 212.003,212.409 213,225.5C 215.811,253.086 222.811,279.419 234,304.5C 236.577,308.594 239.411,312.594 242.5,316.5C 242.043,317.298 241.376,317.631 240.5,317.5C 238.745,316.928 237.078,316.094 235.5,315C 226.22,306.255 219.053,296.088 214,284.5C 210.161,259.606 206.661,234.772 203.5,210C 205.647,199.18 207.314,188.18 208.5,177C 210.133,171.767 211.967,166.6 214,161.5C 217.921,157.461 222.421,154.294 227.5,152C 238.443,148.733 248.777,144.067 258.5,138C 265.889,129.76 274.889,124.26 285.5,121.5 Z"/>
  </g>
  <g>
    <path style="opacity:0.992" fill="#f8d894" d="M 249.5,115.5 C 250.264,121.964 247.597,125.964 241.5,127.5C 241.912,129.973 240.912,131.306 238.5,131.5C 238.953,130.542 239.619,129.708 240.5,129C 238.134,128.438 235.801,128.604 233.5,129.5C 232.068,129.267 231.568,128.6 232,127.5C 237.457,122.863 243.291,118.863 249.5,115.5 Z"/>
  </g>
  <g>
    <path style="opacity:0.992" fill="#fb6a77" d="M 344.5,111.5 C 349.439,110.352 352.939,112.019 355,116.5C 356.325,125.82 354.825,134.487 350.5,142.5C 350.572,136.455 350.072,130.455 349,124.5C 346.52,121.059 343.687,117.892 340.5,115C 341.072,112.926 342.405,111.76 344.5,111.5 Z"/>
  </g>
  <g>
    <path style="opacity:0.992" fill="#f7b33d" d="M 383.5,75.5 C 386.935,80.7704 391.269,85.2704 396.5,89C 405.181,90.6718 413.514,93.3385 421.5,97C 432.827,105.569 445.66,109.735 460,109.5C 460.833,109.333 461.667,109.167 462.5,109C 461.748,108.329 461.414,107.496 461.5,106.5C 465.316,109.397 468.649,112.73 471.5,116.5C 471,116.833 470.5,117.167 470,117.5C 459.303,114.894 448.47,113.061 437.5,112C 423.346,103.759 408.346,97.4259 392.5,93C 386.825,88.2648 381.325,83.4315 376,78.5C 375.568,77.3999 376.068,76.7332 377.5,76.5C 379.453,75.8444 381.453,75.5111 383.5,75.5 Z"/>
  </g>
  <g>
    <path style="opacity:0.992" fill="#cc6764" d="M 317.5,102.5 C 304.588,103.036 291.588,104.036 278.5,105.5C 280.026,103.87 282.026,103.037 284.5,103C 295.495,102.5 306.495,102.333 317.5,102.5 Z"/>
  </g>
  <g>
    <path style="opacity:0.992" fill="#f4af40" d="M 455.5,103.5 C 451.528,102.892 447.528,102.392 443.5,102C 442.667,101.167 441.833,100.333 441,99.5C 440.768,100.737 440.268,101.737 439.5,102.5C 439.613,99.9512 438.946,97.6179 437.5,95.5C 437.833,95.1667 438.167,94.8333 438.5,94.5C 444.456,97.163 450.122,100.163 455.5,103.5 Z"/>
  </g>
  <g>
    <path style="opacity:0.992" fill="#f2a242" d="M 282.5,93.5 C 292.781,95.4762 303.448,96.1428 314.5,95.5C 303.341,96.3306 292.007,96.8306 280.5,97C 272.91,99.0325 267.41,103.533 264,110.5C 262.887,111.305 261.721,111.972 260.5,112.5C 259.704,107.639 258.038,107.639 255.5,112.5C 254.167,112.833 252.833,113.167 251.5,113.5C 260.634,105.092 270.968,98.4252 282.5,93.5 Z"/>
  </g>
  <g>
    <path style="opacity:0.992" fill="#feafb9" d="M 347.5,78.5 C 348.167,78.5 348.833,78.5 349.5,78.5C 350.043,78.56 350.376,78.8933 350.5,79.5C 348.869,82.6692 347.535,86.0025 346.5,89.5C 343.454,92.3851 340.954,95.7184 339,99.5C 331.772,106.197 323.272,110.364 313.5,112C 300.65,112.234 287.817,112.734 275,113.5C 273.833,113.167 272.667,112.833 271.5,112.5C 272.857,110.814 274.19,109.148 275.5,107.5C 275.973,106.094 276.973,105.427 278.5,105.5C 291.588,104.036 304.588,103.036 317.5,102.5C 320.795,100.853 324.128,99.1861 327.5,97.5C 333.776,92.8928 339.443,87.5595 344.5,81.5C 345.167,80.1667 346.167,79.1667 347.5,78.5 Z"/>
  </g>
  <g>
    <path style="opacity:0.991" fill="#fd6976" d="M 450.5,369.5 C 446.392,357.407 449.559,348.074 460,341.5C 460.483,340.552 460.649,339.552 460.5,338.5C 457.824,339.008 455.157,339.175 452.5,339C 453.056,338.617 453.389,338.117 453.5,337.5C 452.638,336.269 450.971,336.269 448.5,337.5C 448.611,336.883 448.944,336.383 449.5,336C 451.333,335.833 453.167,335.667 455,335.5C 458.67,335.254 461.837,336.087 464.5,338C 474.279,327.269 481.612,315.103 486.5,301.5C 490.125,297.599 491.791,292.932 491.5,287.5C 492.79,286.942 493.623,285.942 494,284.5C 496.667,275.835 498.5,267.001 499.5,258C 499.431,256.014 498.765,254.514 497.5,253.5C 500.974,248.169 499.64,244.836 493.5,243.5C 494.833,243.5 496.167,243.5 497.5,243.5C 493.964,228.392 489.131,213.726 483,199.5C 481.871,197.859 480.371,196.859 478.5,196.5C 482.047,194.397 483.047,191.397 481.5,187.5C 477.117,184.683 472.45,184.017 467.5,185.5C 469.025,183.964 471.025,182.964 473.5,182.5C 469.096,172.149 464.263,162.149 459,152.5C 452.235,145.042 444.069,140.042 434.5,137.5C 435.053,132.382 432.719,129.716 427.5,129.5C 424.894,128.348 422.227,128.182 419.5,129C 417.235,130.118 414.901,130.951 412.5,131.5C 412.918,130.778 413.584,130.278 414.5,130C 408.931,128.814 403.931,126.481 399.5,123C 397.097,122.37 395.263,123.203 394,125.5C 393.088,129.795 392.421,134.128 392,138.5C 388.174,139.755 384.507,141.422 381,143.5C 380.501,148.489 380.334,153.489 380.5,158.5C 385.198,159.1 389.864,159.933 394.5,161C 402.855,165.35 410.688,170.517 418,176.5C 419.845,178.867 421.011,181.533 421.5,184.5C 415.324,179.831 408.99,175.331 402.5,171C 398.558,170.007 394.558,169.34 390.5,169C 383.739,168.681 377.072,168.515 370.5,168.5C 373.306,164.445 374.639,159.945 374.5,155C 372.701,147.221 371.034,139.387 369.5,131.5C 369.015,126.326 371.015,122.66 375.5,120.5C 376.324,123.785 376.824,127.118 377,130.5C 378.353,131.685 379.52,133.019 380.5,134.5C 383.896,136.13 386.729,135.463 389,132.5C 389.238,128.778 389.738,125.111 390.5,121.5C 391.748,119.541 393.415,118.041 395.5,117C 394.906,116.536 394.239,116.369 393.5,116.5C 391.26,115.736 388.927,114.902 386.5,114C 382.669,110.533 379.169,106.7 376,102.5C 371.452,89.0887 362.619,81.0887 349.5,78.5C 348.833,78.5 348.167,78.5 347.5,78.5C 351.304,74.7784 355.804,73.7784 361,75.5C 363.258,77.3801 365.758,78.8801 368.5,80C 375.687,87.3946 383.353,94.0613 391.5,100C 408.318,105.429 424.651,112.096 440.5,120C 448.85,120.88 457.183,121.88 465.5,123C 471.365,124.511 475.532,128.011 478,133.5C 478.003,145.595 479.003,157.595 481,169.5C 483.934,175.033 487.6,180.033 492,184.5C 497.299,188.054 501.799,192.388 505.5,197.5C 507.519,204.065 510.019,210.399 513,216.5C 516.855,222.21 520.188,228.21 523,234.5C 524.861,242.137 524.861,249.804 523,257.5C 519.004,270.146 515.004,282.813 511,295.5C 509.046,300.705 506.713,305.705 504,310.5C 503.333,302.5 503.333,294.5 504,286.5C 504.912,284.341 505.745,282.175 506.5,280C 505.216,279.316 504.049,279.483 503,280.5C 501.807,285.273 500.307,289.94 498.5,294.5C 498.339,307.82 495.505,320.487 490,332.5C 482.482,337.002 474.982,341.502 467.5,346C 463.984,349.349 460.651,352.849 457.5,356.5C 455.714,361.246 453.381,365.58 450.5,369.5 Z"/>
  </g>
  <g>
    <path style="opacity:0.992" fill="#941d11" d="M 434.5,137.5 C 432.326,139.081 429.993,140.581 427.5,142C 421.363,143.601 415.363,145.601 409.5,148C 402.241,148.978 399.408,145.811 401,138.5C 401.956,137.421 402.789,136.255 403.5,135C 406.718,134.1 409.718,132.933 412.5,131.5C 414.901,130.951 417.235,130.118 419.5,129C 422.227,128.182 424.894,128.348 427.5,129.5C 432.719,129.716 435.053,132.382 434.5,137.5 Z"/>
  </g>
  <g>
    <path style="opacity:0.992" fill="#41c59b" d="M 422.5,138.5 C 420.152,138.592 418.486,139.592 417.5,141.5C 414.055,142.093 410.721,143.093 407.5,144.5C 404.754,143.904 403.92,142.237 405,139.5C 411.453,135.072 418.619,132.738 426.5,132.5C 427.031,135.888 425.697,137.888 422.5,138.5 Z"/>
  </g>
  <g>
    <path style="opacity:0.992" fill="#da7b7a" d="M 344.5,81.5 C 339.443,87.5595 333.776,92.8928 327.5,97.5C 332.557,91.4405 338.224,86.1072 344.5,81.5 Z"/>
  </g>
  <g>
    <path style="opacity:0.992" fill="#f9b73f" d="M 314.5,95.5 C 303.448,96.1428 292.781,95.4762 282.5,93.5C 284.612,91.2295 287.279,89.8961 290.5,89.5C 298.656,90.6566 306.99,90.8232 315.5,90C 319.448,88.8624 322.448,86.529 324.5,83C 320.848,82.5014 317.182,82.3347 313.5,82.5C 320.53,80.0565 327.864,79.2232 335.5,80C 329.972,87.3888 322.972,92.5555 314.5,95.5 Z"/>
  </g>
  <g>
    <path style="opacity:0.992" fill="#fbd374" d="M 313.5,82.5 C 317.182,82.3347 320.848,82.5014 324.5,83C 322.448,86.529 319.448,88.8624 315.5,90C 306.99,90.8232 298.656,90.6566 290.5,89.5C 291.261,88.6091 292.261,87.9424 293.5,87.5C 300.291,85.8146 306.957,84.1479 313.5,82.5 Z"/>
  </g>
  <g>
    <path style="opacity:0.992" fill="#fcd776" d="M 383.5,75.5 C 399.474,76.2135 414.141,81.0468 427.5,90C 431.731,94.0621 435.731,98.2288 439.5,102.5C 440.268,101.737 440.768,100.737 441,99.5C 441.833,100.333 442.667,101.167 443.5,102C 447.528,102.392 451.528,102.892 455.5,103.5C 457.5,104.5 459.5,105.5 461.5,106.5C 461.414,107.496 461.748,108.329 462.5,109C 461.667,109.167 460.833,109.333 460,109.5C 445.66,109.735 432.827,105.569 421.5,97C 413.514,93.3385 405.181,90.6718 396.5,89C 391.269,85.2704 386.935,80.7704 383.5,75.5 Z"/>
  </g>
  <g>
    <path style="opacity:0.996" fill="#dfb7b3" d="M 363.5,72.5 C 365.38,72.2291 366.713,72.8958 367.5,74.5C 365.847,74.3404 364.514,73.6737 363.5,72.5 Z"/>
  </g>
  <g>
    <path style="opacity:0.992" fill="#42c39a" d="M 319.5,157.5 C 322.947,156.917 325.947,155.584 328.5,153.5C 330.223,152.193 332.057,152.193 334,153.5C 334.863,155.749 334.363,157.582 332.5,159C 326.231,161.591 319.898,164.091 313.5,166.5C 309.927,166.573 308.76,164.906 310,161.5C 312.889,159.482 316.055,158.149 319.5,157.5 Z"/>
  </g>
  <g>
    <path style="opacity:0.992" fill="#f6af3f" d="M 491.5,145.5 C 490.268,152.479 490.768,159.479 493,166.5C 493.333,166.833 493.667,167.167 494,167.5C 496.094,163.422 497.26,159.089 497.5,154.5C 503.811,162.433 509.144,171.1 513.5,180.5C 513.333,180.833 513.167,181.167 513,181.5C 505.665,177.829 499.999,172.495 496,165.5C 495.262,169.402 495.928,173.068 498,176.5C 501.167,179.667 504.333,182.833 507.5,186C 511.23,188.193 514.897,190.36 518.5,192.5C 517.761,192.369 517.094,192.536 516.5,193C 518.775,199.613 521.275,206.113 524,212.5C 526.39,213.891 528.057,215.891 529,218.5C 529.495,216.527 529.662,214.527 529.5,212.5C 529.833,212.5 530.167,212.5 530.5,212.5C 530.5,213.833 530.5,215.167 530.5,216.5C 530.821,222.026 530.488,227.36 529.5,232.5C 523.158,220.479 517.324,208.146 512,195.5C 503.686,186.849 495.686,177.849 488,168.5C 486.096,165.077 485.263,161.41 485.5,157.5C 485.334,151.491 485.501,145.491 486,139.5C 488.04,141.37 489.873,143.37 491.5,145.5 Z"/>
  </g>
  <g>
    <path style="opacity:0.992" fill="#c98178" d="M 502.5,153.5 C 504.664,155.822 506.331,158.489 507.5,161.5C 504.836,159.516 503.169,156.849 502.5,153.5 Z"/>
  </g>
  <g>
    <path style="opacity:0.992" fill="#fc6976" d="M 348.5,154.5 C 348.392,159.87 348.725,165.203 349.5,170.5C 343.925,171.12 338.592,172.62 333.5,175C 320.823,181.668 308.156,188.335 295.5,195C 293,197.5 290.5,200 288,202.5C 278.378,228.353 278.044,254.353 287,280.5C 291.472,288.638 297.638,295.138 305.5,300C 310.097,307.432 316.097,313.266 323.5,317.5C 319.918,317.271 316.584,317.271 313.5,317.5C 309.913,314.18 305.579,312.846 300.5,313.5C 301.609,312.71 302.942,312.21 304.5,312C 300.736,308.711 296.736,305.878 292.5,303.5C 294.315,301.532 294.815,299.198 294,296.5C 290.562,295.2 287.396,293.533 284.5,291.5C 277.823,281.147 273.49,269.814 271.5,257.5C 267.77,257.854 264.437,259.187 261.5,261.5C 259.562,267.646 257.229,273.646 254.5,279.5C 252.736,281.278 250.736,282.611 248.5,283.5C 250.923,281.243 252.757,278.576 254,275.5C 255.09,264.519 255.59,253.519 255.5,242.5C 258.028,244.874 261.028,245.874 264.5,245.5C 265.641,239.506 268.974,235.006 274.5,232C 273.906,231.536 273.239,231.369 272.5,231.5C 273.936,230.571 275.269,229.405 276.5,228C 274.622,226.457 273.122,224.624 272,222.5C 270.619,211.857 272.619,201.857 278,192.5C 286.509,182.81 296.009,174.477 306.5,167.5C 308.516,170.144 311.183,170.977 314.5,170C 324.087,166.642 333.42,162.808 342.5,158.5C 344.167,158.5 345.833,158.5 347.5,158.5C 347.232,156.901 347.566,155.568 348.5,154.5 Z"/>
  </g>
  <g>
    <path style="opacity:0.992" fill="#e08439" d="M 210.5,153.5 C 210.5,154.167 210.833,154.5 211.5,154.5C 207.668,159.686 205.001,165.353 203.5,171.5C 203.784,169.585 203.451,167.919 202.5,166.5C 203.795,162.577 205.628,158.91 208,155.5C 208.708,154.619 209.542,153.953 210.5,153.5 Z"/>
  </g>
  <g>
    <path style="opacity:0.996" fill="#d29993" d="M 201.5,159.5 C 201.008,161.819 200.008,163.819 198.5,165.5C 198.461,162.911 199.461,160.911 201.5,159.5 Z"/>
  </g>
  <g>
    <path style="opacity:0.992" fill="#931807" d="M 235.5,160.5 C 237.871,162.208 239.537,164.541 240.5,167.5C 241.665,166.509 242.832,165.509 244,164.5C 249.368,162.204 251.368,163.87 250,169.5C 246.207,176.871 242.041,184.038 237.5,191C 233.408,193.145 229.742,192.645 226.5,189.5C 226.5,180.833 226.5,172.167 226.5,163.5C 228.633,159.935 231.633,158.935 235.5,160.5 Z"/>
  </g>
  <g>
    <path style="opacity:0.992" fill="#9a200e" d="M 264.5,164.5 C 273.506,164.334 282.506,164.5 291.5,165C 294.207,166.864 295.041,169.364 294,172.5C 291.5,174.333 289.333,176.5 287.5,179C 279.445,179.822 271.445,179.488 263.5,178C 258.114,173.091 258.448,168.591 264.5,164.5 Z"/>
  </g>
  <g>
    <path style="opacity:0.992" fill="#84c133" d="M 231.5,164.5 C 233.099,164.232 234.432,164.566 235.5,165.5C 235.666,172.841 235.5,180.174 235,187.5C 233.989,188.337 232.822,188.67 231.5,188.5C 230.833,188.5 230.5,188.167 230.5,187.5C 230.201,179.747 230.534,172.08 231.5,164.5 Z"/>
  </g>
  <g>
    <path style="opacity:0.992" fill="#efbd34" d="M 285.5,170.5 C 278.833,170.5 272.167,170.5 265.5,170.5C 265.5,171.5 265.5,172.5 265.5,173.5C 270.71,173.608 275.71,174.275 280.5,175.5C 275.821,175.666 271.155,175.499 266.5,175C 264.808,173.599 264.141,171.766 264.5,169.5C 271.687,169.175 278.687,169.509 285.5,170.5 Z"/>
  </g>
  <g>
    <path style="opacity:0.992" fill="#fee02f" d="M 285.5,170.5 C 287.176,174.833 285.509,176.5 280.5,175.5C 275.71,174.275 270.71,173.608 265.5,173.5C 265.5,172.5 265.5,171.5 265.5,170.5C 272.167,170.5 278.833,170.5 285.5,170.5 Z"/>
  </g>
  <g>
    <path style="opacity:0.992" fill="#838c26" d="M 231.5,164.5 C 230.534,172.08 230.201,179.747 230.5,187.5C 229.835,183.849 229.501,180.015 229.5,176C 229.51,171.771 230.177,167.938 231.5,164.5 Z"/>
  </g>
  <g>
    <path style="opacity:0.996" fill="#dcb0ac" d="M 512.5,171.5 C 514.048,171.821 514.715,172.821 514.5,174.5C 513.599,173.71 512.932,172.71 512.5,171.5 Z"/>
  </g>
  <g>
    <path style="opacity:0.992" fill="#8b5618" d="M 235.5,165.5 C 236.656,172.989 236.822,180.655 236,188.5C 234.384,189.801 232.884,189.801 231.5,188.5C 232.822,188.67 233.989,188.337 235,187.5C 235.5,180.174 235.666,172.841 235.5,165.5 Z"/>
  </g>
  <g>
    <path style="opacity:0.992" fill="#d56264" d="M 226.5,163.5 C 226.5,172.167 226.5,180.833 226.5,189.5C 225.778,189.082 225.278,188.416 225,187.5C 224.501,182.177 224.334,176.844 224.5,171.5C 224.111,168.447 224.777,165.78 226.5,163.5 Z"/>
  </g>
  <g>
    <path style="opacity:0.992" fill="#f9ac44" d="M 202.5,166.5 C 203.451,167.919 203.784,169.585 203.5,171.5C 201.857,175.295 201.191,179.295 201.5,183.5C 200.778,183.918 200.278,184.584 200,185.5C 199.501,180.845 199.334,176.179 199.5,171.5C 200.313,169.739 201.313,168.072 202.5,166.5 Z"/>
  </g>
  <g>
    <path style="opacity:0.992" fill="#9d2b13" d="M 487.5,133.5 C 489.262,134.262 490.262,135.596 490.5,137.5C 493.074,142.409 496.408,146.742 500.5,150.5C 501.401,151.29 502.068,152.29 502.5,153.5C 503.169,156.849 504.836,159.516 507.5,161.5C 509.659,164.484 511.325,167.817 512.5,171.5C 512.932,172.71 513.599,173.71 514.5,174.5C 520.218,181.057 525.385,188.057 530,195.5C 531.992,199.96 533.159,204.627 533.5,209.5C 532.849,208.909 532.182,208.243 531.5,207.5C 530.548,209.045 530.215,210.712 530.5,212.5C 530.167,212.5 529.833,212.5 529.5,212.5C 529.437,207.246 528.27,202.246 526,197.5C 523.901,195.203 521.401,193.536 518.5,192.5C 514.897,190.36 511.23,188.193 507.5,186C 504.333,182.833 501.167,179.667 498,176.5C 495.928,173.068 495.262,169.402 496,165.5C 499.999,172.495 505.665,177.829 513,181.5C 513.167,181.167 513.333,180.833 513.5,180.5C 509.144,171.1 503.811,162.433 497.5,154.5C 495.859,151.205 493.859,148.205 491.5,145.5C 489.873,143.37 488.04,141.37 486,139.5C 485.501,145.491 485.334,151.491 485.5,157.5C 484.182,150.989 484.182,144.322 485.5,137.5C 486.5,137 487.5,136.5 488.5,136C 487.748,135.329 487.414,134.496 487.5,133.5 Z"/>
  </g>
  <g>
    <path style="opacity:0.992" fill="#cf6e30" d="M 199.5,171.5 C 199.334,176.179 199.501,180.845 200,185.5C 200.278,184.584 200.778,183.918 201.5,183.5C 201.11,186.839 200.61,190.173 200,193.5C 199.667,193.167 199.333,192.833 199,192.5C 198.179,185.321 198.345,178.321 199.5,171.5 Z"/>
  </g>
  <g>
    <path style="opacity:0.996" fill="#e1bbb6" d="M 196.5,169.5 C 195.936,181.987 195.269,194.321 194.5,206.5C 194.333,195.162 194.5,183.828 195,172.5C 195.232,171.263 195.732,170.263 196.5,169.5 Z"/>
  </g>
  <g>
    <path style="opacity:0.992" fill="#fcacb5" d="M 434.5,196.5 C 436.784,198.361 438.618,200.695 440,203.5C 441.236,209.144 443.069,214.477 445.5,219.5C 445.5,220.5 445.5,221.5 445.5,222.5C 445.234,226.605 445.734,230.605 447,234.5C 450.215,258.289 445.549,280.289 433,300.5C 426.003,308.839 417.836,315.673 408.5,321C 406.655,322.128 404.655,322.628 402.5,322.5C 396.463,321.215 392.796,323.549 391.5,329.5C 384.82,330.703 378.154,332.036 371.5,333.5C 370.584,333.457 369.917,333.124 369.5,332.5C 390.051,322.779 407.885,309.446 423,292.5C 431.144,283.072 435.144,272.072 435,259.5C 435.667,248.167 435.667,236.833 435,225.5C 433.098,212.365 427.931,200.698 419.5,190.5C 420.365,189.417 421.365,189.251 422.5,190C 426.726,191.763 430.726,193.929 434.5,196.5 Z"/>
  </g>
  <g>
    <path style="opacity:0.992" fill="#fcd675" d="M 518.5,192.5 C 521.401,193.536 523.901,195.203 526,197.5C 528.27,202.246 529.437,207.246 529.5,212.5C 529.662,214.527 529.495,216.527 529,218.5C 528.057,215.891 526.39,213.891 524,212.5C 521.275,206.113 518.775,199.613 516.5,193C 517.094,192.536 517.761,192.369 518.5,192.5 Z"/>
  </g>
  <g>
    <path style="opacity:0.992" fill="#931f0a" d="M 478.5,196.5 C 475.402,197.216 472.736,198.716 470.5,201C 466.572,202.325 462.572,202.658 458.5,202C 455.651,199.441 454.817,196.274 456,192.5C 459.736,189.914 463.57,187.581 467.5,185.5C 472.45,184.017 477.117,184.683 481.5,187.5C 483.047,191.397 482.047,194.397 478.5,196.5 Z"/>
  </g>
  <g>
    <path style="opacity:0.992" fill="#87b933" d="M 470.5,188.5 C 471.833,188.5 473.167,188.5 474.5,188.5C 474.919,191.325 473.919,193.491 471.5,195C 468.221,195.973 465.221,197.473 462.5,199.5C 459.754,198.904 458.92,197.237 460,194.5C 463.393,192.061 466.893,190.061 470.5,188.5 Z"/>
  </g>
  <g>
    <path style="opacity:0.992" fill="#c3766d" d="M 194.5,206.5 C 194.851,210.159 193.851,213.159 191.5,215.5C 192.054,212.254 193.054,209.254 194.5,206.5 Z"/>
  </g>
  <g>
    <path style="opacity:0.992" fill="#9a1f0d" d="M 445.5,222.5 C 445.5,221.5 445.5,220.5 445.5,219.5C 444.776,212.724 447.776,209.89 454.5,211C 455.833,211.667 456.833,212.667 457.5,214C 460.482,214.498 463.482,214.665 466.5,214.5C 466.156,222.591 464.323,230.258 461,237.5C 457.333,240.167 453.667,240.167 450,237.5C 447.834,232.555 446.334,227.555 445.5,222.5 Z"/>
  </g>
  <g>
    <path style="opacity:0.992" fill="#f7d130" d="M 450.5,214.5 C 452.144,214.286 453.644,214.62 455,215.5C 456,219.167 457,222.833 458,226.5C 458.777,229.429 458.61,232.263 457.5,235C 455.567,235.783 454.067,235.283 453,233.5C 451.696,228.382 450.529,223.216 449.5,218C 449.648,216.744 449.982,215.577 450.5,214.5 Z"/>
  </g>
  <g>
    <path style="opacity:0.992" fill="#c97f73" d="M 190.5,217.5 C 189.351,221.092 188.351,224.759 187.5,228.5C 187.253,229.713 186.586,230.38 185.5,230.5C 186.417,225.795 188.083,221.461 190.5,217.5 Z"/>
  </g>
  <g>
    <path style="opacity:0.992" fill="#fbd373" d="M 196.5,257.5 C 190.704,247.624 189.037,236.958 191.5,225.5C 192.75,225.423 193.583,224.756 194,223.5C 196.132,234.713 196.965,246.047 196.5,257.5 Z"/>
  </g>
  <g>
    <path style="opacity:0.992" fill="#ce6c30" d="M 530.5,216.5 C 531.817,222.678 531.817,229.012 530.5,235.5C 529.614,234.675 529.281,233.675 529.5,232.5C 530.488,227.36 530.821,222.026 530.5,216.5 Z"/>
  </g>
  <g>
    <path style="opacity:0.996" fill="#d1968e" d="M 185.5,230.5 C 185.785,233.829 185.118,236.829 183.5,239.5C 183.215,236.171 183.882,233.171 185.5,230.5 Z"/>
  </g>
  <g>
    <path style="opacity:0.992" fill="#f8b53d" d="M 212.5,326.5 C 215.391,322.994 216.558,318.994 216,314.5C 209.219,306.272 204.553,296.939 202,286.5C 201.014,279.379 199.514,272.379 197.5,265.5C 198.239,265.631 198.906,265.464 199.5,265C 198.723,262.372 197.723,259.872 196.5,257.5C 196.965,246.047 196.132,234.713 194,223.5C 193.583,224.756 192.75,225.423 191.5,225.5C 192.666,221.16 194.499,217.16 197,213.5C 198.244,221.928 199.91,230.262 202,238.5C 201.213,260.004 204.879,280.671 213,300.5C 215.636,304.479 218.303,308.479 221,312.5C 221.824,315.882 221.657,319.216 220.5,322.5C 218.708,326.374 217.208,330.374 216,334.5C 215.586,334.957 215.086,335.291 214.5,335.5C 213.322,332.609 212.655,329.609 212.5,326.5 Z"/>
  </g>
  <g>
    <path style="opacity:0.992" fill="#99180d" d="M 246.5,275.5 C 247.404,274.791 247.737,273.791 247.5,272.5C 248.187,261.295 248.853,249.962 249.5,238.5C 253.303,236.019 256.97,236.353 260.5,239.5C 263.951,236.056 267.951,233.39 272.5,231.5C 273.239,231.369 273.906,231.536 274.5,232C 268.974,235.006 265.641,239.506 264.5,245.5C 261.028,245.874 258.028,244.874 255.5,242.5C 255.59,253.519 255.09,264.519 254,275.5C 252.757,278.576 250.923,281.243 248.5,283.5C 247.033,283.894 245.533,284.227 244,284.5C 238.639,283.185 234.972,279.851 233,274.5C 232.835,265.147 233.335,255.814 234.5,246.5C 235.358,240.407 233.692,235.24 229.5,231C 230,230.833 230.5,230.667 231,230.5C 235.145,232.888 237.479,236.554 238,241.5C 238.333,252.167 238.667,262.833 239,273.5C 240.8,277.742 243.3,278.409 246.5,275.5 Z"/>
  </g>
  <g>
    <path style="opacity:0.996" fill="#e0b8b4" d="M 533.5,209.5 C 534.965,218.121 535.632,226.954 535.5,236C 535.499,241.677 535.166,247.177 534.5,252.5C 534.604,238.153 534.27,223.82 533.5,209.5 Z"/>
  </g>
  <g>
    <path style="opacity:0.992" fill="#931a09" d="M 493.5,243.5 C 499.64,244.836 500.974,248.169 497.5,253.5C 489.655,255.484 481.655,255.984 473.5,255C 469.257,250.568 469.59,246.568 474.5,243C 480.884,242.249 487.217,242.416 493.5,243.5 Z"/>
  </g>
  <g>
    <path style="opacity:0.992" fill="#8fad36" d="M 475.5,246.5 C 480.833,246.5 486.167,246.5 491.5,246.5C 491.739,248.467 491.406,250.301 490.5,252C 485.5,252.667 480.5,252.667 475.5,252C 474.248,250.172 474.248,248.339 475.5,246.5 Z"/>
  </g>
  <g>
    <path style="opacity:0.992" fill="#7cce30" d="M 476.5,247.5 C 481.167,247.5 485.833,247.5 490.5,247.5C 490.5,248.5 490.5,249.5 490.5,250.5C 485.833,250.5 481.167,250.5 476.5,250.5C 476.5,249.5 476.5,248.5 476.5,247.5 Z"/>
  </g>
  <g>
    <path style="opacity:0.996" fill="#dcaea9" d="M 183.5,239.5 C 183.621,246.557 184.288,253.557 185.5,260.5C 182.787,253.651 182.12,246.651 183.5,239.5 Z"/>
  </g>
  <g>
    <path style="opacity:0.996" fill="#e4beb9" d="M 534.5,252.5 C 534.611,253.117 534.944,253.617 535.5,254C 534.891,255.948 534.224,257.782 533.5,259.5C 533.198,256.941 533.532,254.607 534.5,252.5 Z"/>
  </g>
  <g>
    <path style="opacity:0.992" fill="#fdaeb8" d="M 247.5,272.5 C 247.737,273.791 247.404,274.791 246.5,275.5C 244.533,275.739 242.699,275.406 241,274.5C 239.582,269.572 239.249,264.572 240,259.5C 242.306,264.754 244.473,264.754 246.5,259.5C 247.492,263.783 247.826,268.116 247.5,272.5 Z"/>
  </g>
  <g>
    <path style="opacity:0.992" fill="#fad273" d="M 197.5,265.5 C 199.514,272.379 201.014,279.379 202,286.5C 204.553,296.939 209.219,306.272 216,314.5C 216.558,318.994 215.391,322.994 212.5,326.5C 209.698,318.629 206.198,310.962 202,303.5C 198.248,294.077 195.248,284.41 193,274.5C 191.502,268.858 190.502,263.192 190,257.5C 192,260.666 194.5,263.332 197.5,265.5 Z"/>
  </g>
  <g>
    <path style="opacity:0.996" fill="#cd8b83" d="M 185.5,261.5 C 186.117,261.611 186.617,261.944 187,262.5C 188.314,266.754 189.147,271.087 189.5,275.5C 187.877,271.022 186.544,266.355 185.5,261.5 Z"/>
  </g>
  <g>
    <path style="opacity:0.996" fill="#d1938b" d="M 533.5,260.5 C 532.353,267.408 530.686,274.075 528.5,280.5C 529.228,274.631 530.228,268.797 531.5,263C 531.684,261.624 532.351,260.791 533.5,260.5 Z"/>
  </g>
  <g>
    <path style="opacity:0.992" fill="#981b08" d="M 491.5,287.5 C 491.791,292.932 490.125,297.599 486.5,301.5C 482.207,302.464 479.04,301.131 477,297.5C 475.626,291.668 473.793,286.001 471.5,280.5C 469.109,274.274 471.109,270.607 477.5,269.5C 479.854,269.511 481.854,270.344 483.5,272C 486.482,272.498 489.482,272.665 492.5,272.5C 491.836,277.473 491.503,282.473 491.5,287.5 Z"/>
  </g>
  <g>
    <path style="opacity:0.992" fill="#f7d030" d="M 475.5,273.5 C 478.238,272.965 480.072,273.965 481,276.5C 483.449,282.292 485.282,288.292 486.5,294.5C 485.62,297.517 483.786,298.184 481,296.5C 479.056,291.608 477.39,286.608 476,281.5C 475.503,278.854 475.336,276.187 475.5,273.5 Z"/>
  </g>
  <g>
    <path style="opacity:0.992" fill="#991a09" d="M 354.5,153.5 C 354.334,157.514 354.501,161.514 355,165.5C 360.619,171.154 364.119,169.821 365.5,161.5C 366.805,159.603 367.471,157.269 367.5,154.5C 364.702,145.375 363.535,136.042 364,126.5C 366.276,116.531 371.943,113.531 381,117.5C 381.333,121.833 381.667,126.167 382,130.5C 383.333,131.833 384.667,131.833 386,130.5C 385.133,123.895 387.633,119.228 393.5,116.5C 394.239,116.369 394.906,116.536 395.5,117C 393.415,118.041 391.748,119.541 390.5,121.5C 389.738,125.111 389.238,128.778 389,132.5C 386.729,135.463 383.896,136.13 380.5,134.5C 379.52,133.019 378.353,131.685 377,130.5C 376.824,127.118 376.324,123.785 375.5,120.5C 371.015,122.66 369.015,126.326 369.5,131.5C 371.034,139.387 372.701,147.221 374.5,155C 374.639,159.945 373.306,164.445 370.5,168.5C 377.072,168.515 383.739,168.681 390.5,169C 394.558,169.34 398.558,170.007 402.5,171C 408.99,175.331 415.324,179.831 421.5,184.5C 426.98,188.079 432.314,191.912 437.5,196C 436.552,196.483 435.552,196.649 434.5,196.5C 430.726,193.929 426.726,191.763 422.5,190C 421.365,189.251 420.365,189.417 419.5,190.5C 427.931,200.698 433.098,212.365 435,225.5C 435.667,236.833 435.667,248.167 435,259.5C 435.144,272.072 431.144,283.072 423,292.5C 407.885,309.446 390.051,322.779 369.5,332.5C 363.207,334.096 356.874,335.596 350.5,337C 348.5,337.667 346.5,337.667 344.5,337C 351.987,334.058 359.32,330.724 366.5,327C 360.629,326.769 354.796,326.269 349,325.5C 338.449,319.806 328.282,313.473 318.5,306.5C 317.479,307.002 317.312,307.668 318,308.5C 320,310.5 322,312.5 324,314.5C 324.74,315.749 324.573,316.749 323.5,317.5C 316.097,313.266 310.097,307.432 305.5,300C 297.638,295.138 291.472,288.638 287,280.5C 278.044,254.353 278.378,228.353 288,202.5C 290.5,200 293,197.5 295.5,195C 308.156,188.335 320.823,181.668 333.5,175C 338.592,172.62 343.925,171.12 349.5,170.5C 348.725,165.203 348.392,159.87 348.5,154.5C 348.848,150.443 349.514,146.443 350.5,142.5C 354.825,134.487 356.325,125.82 355,116.5C 352.939,112.019 349.439,110.352 344.5,111.5C 350.617,108.612 355.45,110.279 359,116.5C 359.667,122.167 359.667,127.833 359,133.5C 357.669,140.277 356.169,146.944 354.5,153.5 Z M 406.5,249.5 C 407.715,248.221 407.382,247.221 405.5,246.5C 405.382,238.146 406.716,230.313 409.5,223C 409.833,222.5 410.167,222 410.5,221.5C 413.086,223.679 414.919,226.346 416,229.5C 416.24,239.925 415.406,250.258 413.5,260.5C 412.575,261.641 411.741,261.641 411,260.5C 409.583,256.735 408.083,253.069 406.5,249.5 Z M 328.5,250.5 C 326.824,251.183 326.157,252.517 326.5,254.5C 326.5,254.833 326.5,255.167 326.5,255.5C 325.691,257.028 325.024,258.694 324.5,260.5C 321.787,268.712 316.954,275.378 310,280.5C 304.353,274.54 300.853,267.54 299.5,259.5C 299.737,258.209 299.404,257.209 298.5,256.5C 298.152,251.757 297.985,246.757 298,241.5C 302.191,233.721 304.691,225.388 305.5,216.5C 307.893,212.463 310.226,208.463 312.5,204.5C 314.262,203.738 315.262,202.404 315.5,200.5C 316.167,200.167 316.833,199.833 317.5,199.5C 319.404,199.262 320.738,198.262 321.5,196.5C 323.082,195.124 324.915,194.124 327,193.5C 328.882,194.093 329.882,195.427 330,197.5C 332.259,215.259 331.759,232.925 328.5,250.5 Z M 353.5,187.5 C 357.5,187.5 361.5,187.5 365.5,187.5C 366.752,189.001 367.752,190.668 368.5,192.5C 368.5,196.5 368.5,200.5 368.5,204.5C 368.366,206.292 368.699,207.958 369.5,209.5C 370.551,210.222 371.218,211.222 371.5,212.5C 373.176,214.834 375.509,215.834 378.5,215.5C 378.517,213.435 378.85,211.435 379.5,209.5C 379.5,209.167 379.5,208.833 379.5,208.5C 381.862,206.081 382.862,203.081 382.5,199.5C 385.193,200.02 387.193,201.52 388.5,204C 389.793,204.49 391.127,204.657 392.5,204.5C 394.63,215.412 396.297,226.412 397.5,237.5C 397.5,245.5 397.5,253.5 397.5,261.5C 395.692,262.918 395.025,264.918 395.5,267.5C 394.665,272.012 392.999,276.179 390.5,280C 390.743,280.902 391.077,281.735 391.5,282.5C 389.12,284.582 387.454,287.249 386.5,290.5C 383.914,291.638 382.247,293.638 381.5,296.5C 379.847,296.66 378.514,297.326 377.5,298.5C 376.292,297.766 374.959,297.433 373.5,297.5C 369.626,294.733 365.293,292.733 360.5,291.5C 359.222,291.218 358.222,290.551 357.5,289.5C 356.035,288.263 354.368,287.263 352.5,286.5C 350.403,283.947 348.07,281.614 345.5,279.5C 345.672,278.508 345.338,277.842 344.5,277.5C 342.872,275.015 341.539,272.348 340.5,269.5C 340.802,266.941 340.468,264.607 339.5,262.5C 339.5,259.167 339.5,255.833 339.5,252.5C 340.441,247.93 340.774,243.263 340.5,238.5C 340.5,237.5 340.5,236.5 340.5,235.5C 341.645,231.466 342.312,227.466 342.5,223.5C 342.5,222.5 342.5,221.5 342.5,220.5C 344.554,217.992 345.554,214.992 345.5,211.5C 346.545,205.579 348.211,199.912 350.5,194.5C 351.677,192.321 352.677,189.987 353.5,187.5 Z"/>
  </g>
  <g>
    <path style="opacity:0.996" fill="#f1ba65" d="M 296.5,263.5 C 297.565,268.965 299.732,273.965 303,278.5C 307.479,282.964 311.979,287.298 316.5,291.5C 303.352,286.462 296.686,277.129 296.5,263.5 Z"/>
  </g>
  <g>
    <path style="opacity:0.992" fill="#db963c" d="M 407.5,273.5 C 403.59,282.741 397.257,289.741 388.5,294.5C 398.224,279.44 402.724,262.773 402,244.5C 403.85,251.71 406.683,258.544 410.5,265C 407.919,267.582 406.919,270.415 407.5,273.5 Z"/>
  </g>
  <g>
    <path style="opacity:0.938" fill="#9e2a13" d="M 332.5,190.5 C 332.5,191.5 332.5,192.5 332.5,193.5C 334.083,212.87 333.749,232.203 331.5,251.5C 329.576,256.773 327.742,262.106 326,267.5C 322.661,272.993 319.161,278.326 315.5,283.5C 317.851,287.511 320.184,291.511 322.5,295.5C 320.205,294.525 318.205,293.192 316.5,291.5C 311.979,287.298 307.479,282.964 303,278.5C 299.732,273.965 297.565,268.965 296.5,263.5C 295.036,257.514 293.703,251.514 292.5,245.5C 292.449,242.308 293.116,239.308 294.5,236.5C 297.304,229.04 299.804,221.374 302,213.5C 304.023,209.34 306.189,205.34 308.5,201.5C 314.63,195.926 321.63,191.593 329.5,188.5C 330.518,189.193 331.518,189.859 332.5,190.5 Z M 328.5,250.5 C 326.824,251.183 326.157,252.517 326.5,254.5C 326.5,254.833 326.5,255.167 326.5,255.5C 325.691,257.028 325.024,258.694 324.5,260.5C 321.787,268.712 316.954,275.378 310,280.5C 304.353,274.54 300.853,267.54 299.5,259.5C 299.737,258.209 299.404,257.209 298.5,256.5C 298.152,251.757 297.985,246.757 298,241.5C 302.191,233.721 304.691,225.388 305.5,216.5C 307.893,212.463 310.226,208.463 312.5,204.5C 314.262,203.738 315.262,202.404 315.5,200.5C 316.167,200.167 316.833,199.833 317.5,199.5C 319.404,199.262 320.738,198.262 321.5,196.5C 323.082,195.124 324.915,194.124 327,193.5C 328.882,194.093 329.882,195.427 330,197.5C 332.259,215.259 331.759,232.925 328.5,250.5 Z"/>
  </g>
  <g>
    <path style="opacity:0.098" fill="#c47975" d="M 397.5,261.5 C 397.741,263.898 397.074,265.898 395.5,267.5C 395.025,264.918 395.692,262.918 397.5,261.5 Z"/>
  </g>
  <g>
    <path style="opacity:0.294" fill="#c07268" d="M 339.5,262.5 C 340.468,264.607 340.802,266.941 340.5,269.5C 339.275,268.848 338.608,267.681 338.5,266C 338.514,264.615 338.848,263.449 339.5,262.5 Z"/>
  </g>
  <g>
    <path style="opacity:0.396" fill="#e6bdb9" d="M 298.5,256.5 C 299.404,257.209 299.737,258.209 299.5,259.5C 298.761,259.631 298.094,259.464 297.5,259C 298.252,258.329 298.586,257.496 298.5,256.5 Z"/>
  </g>
  <g>
    <path style="opacity:0.976" fill="#d79e9a" d="M 326.5,255.5 C 327.798,257.909 327.131,259.575 324.5,260.5C 325.024,258.694 325.691,257.028 326.5,255.5 Z"/>
  </g>
  <g>
    <path style="opacity:0.996" fill="#d97719" d="M 366.5,176.5 C 360.47,176.938 354.47,178.105 348.5,180C 347.328,180.419 346.328,181.085 345.5,182C 348.146,182.497 350.813,182.664 353.5,182.5C 358.695,182.179 363.695,182.513 368.5,183.5C 360.16,183.334 351.827,183.5 343.5,184C 342.584,184.278 341.918,184.778 341.5,185.5C 337.01,184.903 334.01,186.569 332.5,190.5C 331.518,189.859 330.518,189.193 329.5,188.5C 321.63,191.593 314.63,195.926 308.5,201.5C 303.239,203.592 299.406,207.259 297,212.5C 294.582,220.536 293.749,228.536 294.5,236.5C 293.116,239.308 292.449,242.308 292.5,245.5C 293.703,251.514 295.036,257.514 296.5,263.5C 296.686,277.129 303.352,286.462 316.5,291.5C 318.205,293.192 320.205,294.525 322.5,295.5C 325.013,297.926 328.013,299.592 331.5,300.5C 332.71,300.932 333.71,301.599 334.5,302.5C 334.897,305.446 335.897,308.113 337.5,310.5C 325.888,303.69 314.222,296.857 302.5,290C 298.453,285.936 295.12,281.269 292.5,276C 287.673,258.854 286.173,241.354 288,223.5C 289.349,212.963 294.183,204.463 302.5,198C 313.255,193.456 323.588,188.123 333.5,182C 344.104,177.801 355.104,175.968 366.5,176.5 Z"/>
  </g>
  <g>
    <path style="opacity:0.996" fill="#a43720" d="M 398.5,212.5 C 399.676,218.664 400.676,224.998 401.5,231.5C 402.723,226.159 404.723,221.159 407.5,216.5C 408.689,215.571 410.022,215.238 411.5,215.5C 414.215,218.214 416.549,221.214 418.5,224.5C 419.188,235.82 418.855,247.153 417.5,258.5C 414.948,264.046 411.615,269.046 407.5,273.5C 406.919,270.415 407.919,267.582 410.5,265C 406.683,258.544 403.85,251.71 402,244.5C 402.724,262.773 398.224,279.44 388.5,294.5C 386.23,296.975 383.563,298.975 380.5,300.5C 379.5,299.833 378.5,299.167 377.5,298.5C 378.514,297.326 379.847,296.66 381.5,296.5C 384.098,295.32 385.764,293.32 386.5,290.5C 389.166,288.511 390.833,285.844 391.5,282.5C 391.077,281.735 390.743,280.902 390.5,280C 392.999,276.179 394.665,272.012 395.5,267.5C 397.074,265.898 397.741,263.898 397.5,261.5C 397.5,253.5 397.5,245.5 397.5,237.5C 399.28,241.727 400.114,246.394 400,251.5C 400.437,238.468 399.937,225.468 398.5,212.5 Z M 406.5,249.5 C 407.715,248.221 407.382,247.221 405.5,246.5C 405.382,238.146 406.716,230.313 409.5,223C 409.833,222.5 410.167,222 410.5,221.5C 413.086,223.679 414.919,226.346 416,229.5C 416.24,239.925 415.406,250.258 413.5,260.5C 412.575,261.641 411.741,261.641 411,260.5C 409.583,256.735 408.083,253.069 406.5,249.5 Z"/>
  </g>
  <g>
    <path style="opacity:0.763" fill="#e9cdcb" d="M 328.5,250.5 C 328.843,252.483 328.176,253.817 326.5,254.5C 326.157,252.517 326.824,251.183 328.5,250.5 Z"/>
  </g>
  <g>
    <path style="opacity:0.992" fill="#b55f55" d="M 340.5,238.5 C 340.774,243.263 340.441,247.93 339.5,252.5C 338.837,250.359 338.503,248.025 338.5,245.5C 338.529,242.731 339.195,240.397 340.5,238.5 Z"/>
  </g>
  <g>
    <path style="opacity:0.659" fill="#e3c2b2" d="M 405.5,246.5 C 407.382,247.221 407.715,248.221 406.5,249.5C 405.89,248.609 405.557,247.609 405.5,246.5 Z"/>
  </g>
  <g>
    <path style="opacity:0.993" fill="#fcd674" d="M 334.5,302.5 C 333.71,301.599 332.71,300.932 331.5,300.5C 334.287,299.523 337.287,299.19 340.5,299.5C 345.936,301.133 351.103,303.466 356,306.5C 360.916,305.244 365.75,304.244 370.5,303.5C 373.968,302.899 377.301,301.899 380.5,300.5C 383.563,298.975 386.23,296.975 388.5,294.5C 397.257,289.741 403.59,282.741 407.5,273.5C 411.615,269.046 414.948,264.046 417.5,258.5C 418.268,257.737 418.768,256.737 419,255.5C 420,245.511 420.333,235.511 420,225.5C 419.617,224.944 419.117,224.611 418.5,224.5C 416.549,221.214 414.215,218.214 411.5,215.5C 407.404,213.395 404.738,210.062 403.5,205.5C 399.762,199.588 395.429,194.088 390.5,189C 383.336,186.477 376.002,184.644 368.5,183.5C 363.695,182.513 358.695,182.179 353.5,182.5C 365.642,180.911 377.975,180.411 390.5,181C 392.246,181.471 393.913,182.138 395.5,183C 415.38,198.769 424.713,219.436 423.5,245C 425.662,262.851 420.495,278.018 408,290.5C 401.456,296.379 394.622,301.879 387.5,307C 368.481,318.492 350.814,316.992 334.5,302.5 Z"/>
  </g>
  <g>
    <path style="opacity:0.984" fill="#99200b" d="M 368.5,183.5 C 376.002,184.644 383.336,186.477 390.5,189C 395.429,194.088 399.762,199.588 403.5,205.5C 403.649,206.552 403.483,207.552 403,208.5C 401.981,207.313 400.814,206.313 399.5,205.5C 398.526,207.743 398.192,210.076 398.5,212.5C 399.937,225.468 400.437,238.468 400,251.5C 400.114,246.394 399.28,241.727 397.5,237.5C 396.297,226.412 394.63,215.412 392.5,204.5C 392.5,203.833 392.5,203.167 392.5,202.5C 392.559,197.955 390.559,194.622 386.5,192.5C 381.583,191.26 376.583,190.426 371.5,190C 369.372,189.345 367.372,188.511 365.5,187.5C 361.5,187.5 357.5,187.5 353.5,187.5C 352.503,187.47 351.836,187.97 351.5,189C 351.025,190.763 350.358,192.43 349.5,194C 349.728,194.399 350.062,194.565 350.5,194.5C 348.211,199.912 346.545,205.579 345.5,211.5C 343.149,213.841 342.149,216.841 342.5,220.5C 342.5,221.5 342.5,222.5 342.5,223.5C 340.676,225.996 339.676,228.996 339.5,232.5C 339.685,233.584 340.018,234.584 340.5,235.5C 340.5,236.5 340.5,237.5 340.5,238.5C 339.195,240.397 338.529,242.731 338.5,245.5C 338.503,248.025 338.837,250.359 339.5,252.5C 339.5,255.833 339.5,259.167 339.5,262.5C 338.848,263.449 338.514,264.615 338.5,266C 338.608,267.681 339.275,268.848 340.5,269.5C 341.539,272.348 342.872,275.015 344.5,277.5C 343.243,278.623 343.576,279.289 345.5,279.5C 348.07,281.614 350.403,283.947 352.5,286.5C 353.098,289.821 354.765,290.821 357.5,289.5C 358.222,290.551 359.222,291.218 360.5,291.5C 361.122,293.335 362.456,294.502 364.5,295C 367.432,296.145 370.432,296.978 373.5,297.5C 374.959,297.433 376.292,297.766 377.5,298.5C 378.5,299.167 379.5,299.833 380.5,300.5C 377.301,301.899 373.968,302.899 370.5,303.5C 367.15,303.665 363.817,303.498 360.5,303C 364.006,302.371 367.34,301.371 370.5,300C 339.556,291.023 327.722,270.523 335,238.5C 336.646,232.695 337.646,226.695 338,220.5C 340.487,208.86 344.654,197.86 350.5,187.5C 348.955,186.548 347.288,186.215 345.5,186.5C 343.901,186.768 342.568,186.434 341.5,185.5C 341.918,184.778 342.584,184.278 343.5,184C 351.827,183.5 360.16,183.334 368.5,183.5 Z"/>
  </g>
  <g>
    <path style="opacity:0.996" fill="#d68f51" d="M 418.5,224.5 C 419.117,224.611 419.617,224.944 420,225.5C 420.333,235.511 420,245.511 419,255.5C 418.768,256.737 418.268,257.737 417.5,258.5C 418.855,247.153 419.188,235.82 418.5,224.5 Z"/>
  </g>
  <g>
    <path style="opacity:0.647" fill="#bd695d" d="M 342.5,223.5 C 342.312,227.466 341.645,231.466 340.5,235.5C 340.018,234.584 339.685,233.584 339.5,232.5C 339.676,228.996 340.676,225.996 342.5,223.5 Z"/>
  </g>
  <g>
    <path style="opacity:0.996" fill="#f9ce6e" d="M 308.5,201.5 C 306.189,205.34 304.023,209.34 302,213.5C 299.804,221.374 297.304,229.04 294.5,236.5C 293.749,228.536 294.582,220.536 297,212.5C 299.406,207.259 303.239,203.592 308.5,201.5 Z"/>
  </g>
  <g>
    <path style="opacity:0.996" fill="#dd993e" d="M 403.5,205.5 C 404.738,210.062 407.404,213.395 411.5,215.5C 410.022,215.238 408.689,215.571 407.5,216.5C 404.723,221.159 402.723,226.159 401.5,231.5C 400.676,224.998 399.676,218.664 398.5,212.5C 398.192,210.076 398.526,207.743 399.5,205.5C 400.814,206.313 401.981,207.313 403,208.5C 403.483,207.552 403.649,206.552 403.5,205.5 Z"/>
  </g>
  <g>
    <path style="opacity:0.859" fill="#c47067" d="M 345.5,211.5 C 345.554,214.992 344.554,217.992 342.5,220.5C 342.149,216.841 343.149,213.841 345.5,211.5 Z"/>
  </g>
  <g>
    <path style="opacity:0.99" fill="#9e2b13" d="M 368.5,192.5 C 369.649,192.791 370.316,193.624 370.5,195C 370.544,200.08 372.044,204.58 375,208.5C 376.511,203.977 378.678,199.81 381.5,196C 383.674,195.123 385.341,195.623 386.5,197.5C 384.517,197.157 383.183,197.824 382.5,199.5C 381.883,199.611 381.383,199.944 381,200.5C 380.433,203.168 379.933,205.834 379.5,208.5C 379.5,208.833 379.5,209.167 379.5,209.5C 377.903,210.737 376.737,212.404 376,214.5C 374.67,213.418 373.17,212.751 371.5,212.5C 371.218,211.222 370.551,210.222 369.5,209.5C 370.678,207.662 370.345,205.995 368.5,204.5C 368.5,200.5 368.5,196.5 368.5,192.5 Z"/>
  </g>
  <g>
    <path style="opacity:0.69" fill="#e3bdb9" d="M 315.5,200.5 C 315.262,202.404 314.262,203.738 312.5,204.5C 312.738,202.596 313.738,201.262 315.5,200.5 Z"/>
  </g>
  <g>
    <path style="opacity:0.745" fill="#b55e44" d="M 386.5,197.5 C 388.304,199.495 390.304,201.162 392.5,202.5C 392.5,203.167 392.5,203.833 392.5,204.5C 391.127,204.657 389.793,204.49 388.5,204C 387.193,201.52 385.193,200.02 382.5,199.5C 383.183,197.824 384.517,197.157 386.5,197.5 Z"/>
  </g>
  <g>
    <path style="opacity:0.396" fill="#ce8882" d="M 321.5,196.5 C 320.738,198.262 319.404,199.262 317.5,199.5C 317.762,197.436 318.929,196.103 321,195.5C 321.399,195.728 321.565,196.062 321.5,196.5 Z"/>
  </g>
  <g>
    <path style="opacity:0.992" fill="#da943c" d="M 365.5,187.5 C 367.372,188.511 369.372,189.345 371.5,190C 376.583,190.426 381.583,191.26 386.5,192.5C 390.559,194.622 392.559,197.955 392.5,202.5C 390.304,201.162 388.304,199.495 386.5,197.5C 385.341,195.623 383.674,195.123 381.5,196C 378.678,199.81 376.511,203.977 375,208.5C 372.044,204.58 370.544,200.08 370.5,195C 370.316,193.624 369.649,192.791 368.5,192.5C 367.752,190.668 366.752,189.001 365.5,187.5 Z"/>
  </g>
  <g>
    <path style="opacity:0.827" fill="#c47d74" d="M 353.5,187.5 C 352.677,189.987 351.677,192.321 350.5,194.5C 350.062,194.565 349.728,194.399 349.5,194C 350.358,192.43 351.025,190.763 351.5,189C 351.836,187.97 352.503,187.47 353.5,187.5 Z"/>
  </g>
  <g>
    <path style="opacity:0.969" fill="#d19c96" d="M 379.5,209.5 C 378.85,211.435 378.517,213.435 378.5,215.5C 375.509,215.834 373.176,214.834 371.5,212.5C 373.17,212.751 374.67,213.418 376,214.5C 376.737,212.404 377.903,210.737 379.5,209.5 Z"/>
  </g>
  <g>
    <path style="opacity:0.435" fill="#e9c6c2" d="M 368.5,204.5 C 370.345,205.995 370.678,207.662 369.5,209.5C 368.699,207.958 368.366,206.292 368.5,204.5 Z"/>
  </g>
  <g>
    <path style="opacity:0.486" fill="#cb8a85" d="M 382.5,199.5 C 382.862,203.081 381.862,206.081 379.5,208.5C 379.933,205.834 380.433,203.168 381,200.5C 381.383,199.944 381.883,199.611 382.5,199.5 Z"/>
  </g>
  <g>
    <path style="opacity:0.996" fill="#db9a38" d="M 341.5,185.5 C 342.568,186.434 343.901,186.768 345.5,186.5C 341.139,197.458 337.972,208.791 336,220.5C 334.79,211.894 334.123,203.227 334,194.5C 333.617,193.944 333.117,193.611 332.5,193.5C 332.5,192.5 332.5,191.5 332.5,190.5C 334.01,186.569 337.01,184.903 341.5,185.5 Z"/>
  </g>
  <g>
    <path style="opacity:0.992" fill="#f9b63d" d="M 337.5,310.5 C 335.897,308.113 334.897,305.446 334.5,302.5C 350.814,316.992 368.481,318.492 387.5,307C 394.622,301.879 401.456,296.379 408,290.5C 420.495,278.018 425.662,262.851 423.5,245C 424.713,219.436 415.38,198.769 395.5,183C 393.913,182.138 392.246,181.471 390.5,181C 377.975,180.411 365.642,180.911 353.5,182.5C 350.813,182.664 348.146,182.497 345.5,182C 346.328,181.085 347.328,180.419 348.5,180C 354.47,178.105 360.47,176.938 366.5,176.5C 375.324,175.343 384.324,175.176 393.5,176C 405,182.167 413.833,191 420,202.5C 423.813,208.781 426.48,215.447 428,222.5C 428.921,238.546 428.588,254.546 427,270.5C 421.21,286.293 411.043,298.459 396.5,307C 386.994,312.17 376.994,316.17 366.5,319C 355.237,320.865 345.571,318.031 337.5,310.5 Z"/>
  </g>
  <g>
    <path style="opacity:0.992" fill="#faa8af" d="M 354.5,153.5 C 358.239,156.264 361.905,158.931 365.5,161.5C 364.119,169.821 360.619,171.154 355,165.5C 354.501,161.514 354.334,157.514 354.5,153.5 Z"/>
  </g>
  <g>
    <path style="opacity:0.99" fill="#da993a" d="M 331.5,251.5 C 332.954,263.17 334.288,275.004 335.5,287C 335.414,290.759 334.414,294.259 332.5,297.5C 335.306,298.168 337.972,298.834 340.5,299.5C 337.287,299.19 334.287,299.523 331.5,300.5C 328.013,299.592 325.013,297.926 322.5,295.5C 320.184,291.511 317.851,287.511 315.5,283.5C 319.161,278.326 322.661,272.993 326,267.5C 327.742,262.106 329.576,256.773 331.5,251.5 Z"/>
  </g>
  <g>
    <path style="opacity:0.204" fill="#d9ada8" d="M 344.5,277.5 C 345.338,277.842 345.672,278.508 345.5,279.5C 343.576,279.289 343.243,278.623 344.5,277.5 Z"/>
  </g>
  <g>
    <path style="opacity:0.992" fill="#bc6659" d="M 190.5,278.5 C 191.693,278.97 192.36,279.97 192.5,281.5C 193.095,284.14 193.428,286.807 193.5,289.5C 191.882,286.112 190.882,282.446 190.5,278.5 Z"/>
  </g>
  <g>
    <path style="opacity:0.992" fill="#c16616" d="M 345.5,186.5 C 347.288,186.215 348.955,186.548 350.5,187.5C 344.654,197.86 340.487,208.86 338,220.5C 337.646,226.695 336.646,232.695 335,238.5C 327.722,270.523 339.556,291.023 370.5,300C 367.34,301.371 364.006,302.371 360.5,303C 363.817,303.498 367.15,303.665 370.5,303.5C 365.75,304.244 360.916,305.244 356,306.5C 351.103,303.466 345.936,301.133 340.5,299.5C 337.972,298.834 335.306,298.168 332.5,297.5C 334.414,294.259 335.414,290.759 335.5,287C 334.288,275.004 332.954,263.17 331.5,251.5C 333.749,232.203 334.083,212.87 332.5,193.5C 333.117,193.611 333.617,193.944 334,194.5C 334.123,203.227 334.79,211.894 336,220.5C 337.972,208.791 341.139,197.458 345.5,186.5 Z"/>
  </g>
  <g>
    <path style="opacity:0.722" fill="#ca8780" d="M 391.5,282.5 C 390.833,285.844 389.166,288.511 386.5,290.5C 387.454,287.249 389.12,284.582 391.5,282.5 Z"/>
  </g>
  <g>
    <path style="opacity:0.318" fill="#c98981" d="M 352.5,286.5 C 354.368,287.263 356.035,288.263 357.5,289.5C 354.765,290.821 353.098,289.821 352.5,286.5 Z"/>
  </g>
  <g>
    <path style="opacity:0.996" fill="#d59b95" d="M 193.5,289.5 C 194.924,291.515 195.59,293.848 195.5,296.5C 194.609,294.709 193.609,292.876 192.5,291C 193.056,290.617 193.389,290.117 193.5,289.5 Z"/>
  </g>
  <g>
    <path style="opacity:0.996" fill="#cd8a80" d="M 528.5,280.5 C 527.903,285.816 526.57,290.816 524.5,295.5C 524.791,289.987 526.124,284.987 528.5,280.5 Z"/>
  </g>
  <g>
    <path style="opacity:0.702" fill="#cb877f" d="M 360.5,291.5 C 365.293,292.733 369.626,294.733 373.5,297.5C 370.432,296.978 367.432,296.145 364.5,295C 362.456,294.502 361.122,293.335 360.5,291.5 Z"/>
  </g>
  <g>
    <path style="opacity:0.992" fill="#94200b" d="M 284.5,291.5 C 287.396,293.533 290.562,295.2 294,296.5C 294.815,299.198 294.315,301.532 292.5,303.5C 289.941,304.966 287.108,305.966 284,306.5C 279.446,305.538 274.946,304.371 270.5,303C 262.217,300.465 260.55,295.799 265.5,289C 271.913,289.017 278.247,289.85 284.5,291.5 Z"/>
  </g>
  <g>
    <path style="opacity:0.541" fill="#d39f99" d="M 386.5,290.5 C 385.764,293.32 384.098,295.32 381.5,296.5C 382.247,293.638 383.914,291.638 386.5,290.5 Z"/>
  </g>
  <g>
    <path style="opacity:0.992" fill="#8d8b2d" d="M 271.5,292.5 C 268.5,292.167 267.167,293.5 267.5,296.5C 266.402,295.399 266.235,294.066 267,292.5C 268.616,291.199 270.116,291.199 271.5,292.5 Z"/>
  </g>
  <g>
    <path style="opacity:0.992" fill="#83c333" d="M 271.5,292.5 C 275.96,294.263 280.627,295.763 285.5,297C 287.5,301.333 286.167,303 281.5,302C 277.12,300.822 272.787,299.488 268.5,298C 267.944,297.617 267.611,297.117 267.5,296.5C 267.167,293.5 268.5,292.167 271.5,292.5 Z"/>
  </g>
  <g>
    <path style="opacity:0.996" fill="#e2bcb9" d="M 524.5,295.5 C 524.946,298.01 524.28,300.01 522.5,301.5C 522.5,301.167 522.5,300.833 522.5,300.5C 523.024,298.694 523.691,297.028 524.5,295.5 Z"/>
  </g>
  <g>
    <path style="opacity:0.992" fill="#c98278" d="M 195.5,296.5 C 198.039,300.737 200.039,305.403 201.5,310.5C 200.21,309.942 199.377,308.942 199,307.5C 197.722,303.835 196.556,300.168 195.5,296.5 Z"/>
  </g>
  <g>
    <path style="opacity:0.992" fill="#fd8c99" d="M 412.5,131.5 C 409.718,132.933 406.718,134.1 403.5,135C 402.789,136.255 401.956,137.421 401,138.5C 399.408,145.811 402.241,148.978 409.5,148C 415.363,145.601 421.363,143.601 427.5,142C 429.993,140.581 432.326,139.081 434.5,137.5C 444.069,140.042 452.235,145.042 459,152.5C 464.263,162.149 469.096,172.149 473.5,182.5C 471.025,182.964 469.025,183.964 467.5,185.5C 463.57,187.581 459.736,189.914 456,192.5C 454.817,196.274 455.651,199.441 458.5,202C 462.572,202.658 466.572,202.325 470.5,201C 472.736,198.716 475.402,197.216 478.5,196.5C 480.371,196.859 481.871,197.859 483,199.5C 489.131,213.726 493.964,228.392 497.5,243.5C 496.167,243.5 494.833,243.5 493.5,243.5C 487.217,242.416 480.884,242.249 474.5,243C 469.59,246.568 469.257,250.568 473.5,255C 481.655,255.984 489.655,255.484 497.5,253.5C 498.765,254.514 499.431,256.014 499.5,258C 498.5,267.001 496.667,275.835 494,284.5C 493.623,285.942 492.79,286.942 491.5,287.5C 491.503,282.473 491.836,277.473 492.5,272.5C 489.482,272.665 486.482,272.498 483.5,272C 481.854,270.344 479.854,269.511 477.5,269.5C 471.109,270.607 469.109,274.274 471.5,280.5C 473.793,286.001 475.626,291.668 477,297.5C 479.04,301.131 482.207,302.464 486.5,301.5C 481.612,315.103 474.279,327.269 464.5,338C 461.837,336.087 458.67,335.254 455,335.5C 453.167,335.667 451.333,335.833 449.5,336C 448.944,336.383 448.611,336.883 448.5,337.5C 444.067,340.34 441.067,344.34 439.5,349.5C 438.024,356.61 437.357,363.943 437.5,371.5C 438.293,384.497 438.46,397.497 438,410.5C 437.044,413.377 435.711,416.044 434,418.5C 433.329,417.748 432.496,417.414 431.5,417.5C 428.299,414.061 426.966,409.895 427.5,405C 428.181,395.262 430.014,385.762 433,376.5C 433.667,370.833 433.667,365.167 433,359.5C 428.682,350.258 421.515,346.758 411.5,349C 426.925,349.774 432.591,357.608 428.5,372.5C 417.903,375.865 407.236,379.365 396.5,383C 385.334,389.415 374.334,396.082 363.5,403C 359.806,405.687 357.306,409.187 356,413.5C 354.812,419.778 354.312,426.112 354.5,432.5C 354.186,435.947 353.352,439.28 352,442.5C 351.501,446.821 351.334,451.154 351.5,455.5C 349.386,454.64 348.22,452.973 348,450.5C 347.667,447.5 347.333,444.5 347,441.5C 346.5,448.826 346.334,456.159 346.5,463.5C 345.833,463.5 345.5,463.167 345.5,462.5C 344.314,448.331 345.981,434.664 350.5,421.5C 354.047,407.843 355.547,393.843 355,379.5C 353.836,376.505 351.669,374.839 348.5,374.5C 322.684,371.26 299.351,377.426 278.5,393C 275.522,393.696 272.522,394.196 269.5,394.5C 269.5,394.167 269.5,393.833 269.5,393.5C 275.912,393.256 281.079,390.589 285,385.5C 285.333,385.833 285.667,386.167 286,386.5C 288.124,385.378 289.957,383.878 291.5,382C 295.127,381.436 298.293,379.936 301,377.5C 301.667,376.833 301.667,376.167 301,375.5C 296.656,377.891 292.156,378.058 287.5,376C 288.5,375.167 289.5,374.333 290.5,373.5C 288.06,372.664 286.727,370.997 286.5,368.5C 288.045,370.372 290.045,371.372 292.5,371.5C 302.46,370.064 312.127,367.564 321.5,364C 324.396,360.329 323.729,357.329 319.5,355C 315.27,353.71 310.936,353.21 306.5,353.5C 306.414,352.504 306.748,351.671 307.5,351C 304.764,350.578 302.098,350.578 299.5,351C 301.427,348.142 304.094,346.475 307.5,346C 306.833,345.667 306.167,345.333 305.5,345C 301.915,345.411 298.581,346.578 295.5,348.5C 295.48,346.857 296.147,345.524 297.5,344.5C 296.329,342.831 294.996,341.331 293.5,340C 294.284,332.536 294.784,325.036 295,317.5C 295.383,316.944 295.883,316.611 296.5,316.5C 295.407,323.45 295.24,330.45 296,337.5C 297.094,340.71 299.261,342.71 302.5,343.5C 306.223,342.221 309.723,340.554 313,338.5C 313.5,331.508 313.666,324.508 313.5,317.5C 316.584,317.271 319.918,317.271 323.5,317.5C 324.573,316.749 324.74,315.749 324,314.5C 322,312.5 320,310.5 318,308.5C 317.312,307.668 317.479,307.002 318.5,306.5C 328.282,313.473 338.449,319.806 349,325.5C 354.796,326.269 360.629,326.769 366.5,327C 359.32,330.724 351.987,334.058 344.5,337C 346.5,337.667 348.5,337.667 350.5,337C 356.874,335.596 363.207,334.096 369.5,332.5C 369.917,333.124 370.584,333.457 371.5,333.5C 378.154,332.036 384.82,330.703 391.5,329.5C 388.394,335.143 386.061,341.143 384.5,347.5C 384.515,352.182 386.848,354.515 391.5,354.5C 394.314,353.232 397.314,352.399 400.5,352C 404.656,344.878 407.656,337.211 409.5,329C 408.783,325.027 406.45,322.86 402.5,322.5C 404.655,322.628 406.655,322.128 408.5,321C 417.836,315.673 426.003,308.839 433,300.5C 445.549,280.289 450.215,258.289 447,234.5C 445.734,230.605 445.234,226.605 445.5,222.5C 446.334,227.555 447.834,232.555 450,237.5C 453.667,240.167 457.333,240.167 461,237.5C 464.323,230.258 466.156,222.591 466.5,214.5C 463.482,214.665 460.482,214.498 457.5,214C 456.833,212.667 455.833,211.667 454.5,211C 447.776,209.89 444.776,212.724 445.5,219.5C 443.069,214.477 441.236,209.144 440,203.5C 438.618,200.695 436.784,198.361 434.5,196.5C 435.552,196.649 436.552,196.483 437.5,196C 432.314,191.912 426.98,188.079 421.5,184.5C 421.011,181.533 419.845,178.867 418,176.5C 410.688,170.517 402.855,165.35 394.5,161C 389.864,159.933 385.198,159.1 380.5,158.5C 380.334,153.489 380.501,148.489 381,143.5C 384.507,141.422 388.174,139.755 392,138.5C 392.421,134.128 393.088,129.795 394,125.5C 395.263,123.203 397.097,122.37 399.5,123C 403.931,126.481 408.931,128.814 414.5,130C 413.584,130.278 412.918,130.778 412.5,131.5 Z"/>
  </g>
  <g>
    <path style="opacity:0.992" fill="#921f11" d="M 453.5,293.5 C 458.946,293.364 464.28,294.031 469.5,295.5C 469.98,298.685 469.314,301.519 467.5,304C 458.788,306.405 450.122,308.905 441.5,311.5C 435.037,309.575 433.203,305.575 436,299.5C 436.903,298.299 438.069,297.465 439.5,297C 444.44,296.432 449.107,295.265 453.5,293.5 Z"/>
  </g>
  <g>
    <path style="opacity:0.992" fill="#57a480" d="M 449.5,305.5 C 449.611,304.883 449.944,304.383 450.5,304C 453.368,302.617 456.368,301.784 459.5,301.5C 459.5,300.5 459.5,299.5 459.5,298.5C 454.436,298.795 449.436,299.462 444.5,300.5C 444.611,299.883 444.944,299.383 445.5,299C 450.689,297.202 456.022,296.369 461.5,296.5C 461.739,298.467 461.406,300.301 460.5,302C 456.968,303.632 453.301,304.799 449.5,305.5 Z"/>
  </g>
  <g>
    <path style="opacity:0.992" fill="#39cda2" d="M 449.5,305.5 C 446.221,306.492 442.888,306.659 439.5,306C 438.346,301.974 440.013,300.141 444.5,300.5C 449.436,299.462 454.436,298.795 459.5,298.5C 459.5,299.5 459.5,300.5 459.5,301.5C 456.368,301.784 453.368,302.617 450.5,304C 449.944,304.383 449.611,304.883 449.5,305.5 Z"/>
  </g>
  <g>
    <path style="opacity:0.992" fill="#981d09" d="M 439.5,144.5 C 443.576,144.121 447.243,145.121 450.5,147.5C 451.749,154.857 451.582,162.191 450,169.5C 446.344,172.473 442.177,173.64 437.5,173C 435.274,171.38 433.94,169.214 433.5,166.5C 434.012,160.04 435.179,153.707 437,147.5C 437.698,146.309 438.531,145.309 439.5,144.5 Z"/>
  </g>
  <g>
    <path style="opacity:0.992" fill="#fcda32" d="M 444.5,149.5 C 445.152,150.449 445.486,151.615 445.5,153C 444.865,158.518 444.198,164.018 443.5,169.5C 441.833,169.5 440.167,169.5 438.5,169.5C 438.5,167.167 438.5,164.833 438.5,162.5C 439.639,158.699 440.472,154.699 441,150.5C 442.011,149.663 443.178,149.33 444.5,149.5 Z"/>
  </g>
  <g>
    <path style="opacity:0.992" fill="#e4a932" d="M 444.5,149.5 C 443.178,149.33 442.011,149.663 441,150.5C 440.472,154.699 439.639,158.699 438.5,162.5C 438.425,158.103 438.925,153.77 440,149.5C 441.616,148.199 443.116,148.199 444.5,149.5 Z"/>
  </g>
  <g>
    <path style="opacity:0.992" fill="#636a4d" d="M 422.5,138.5 C 421.341,140.25 419.674,141.25 417.5,141.5C 418.486,139.592 420.152,138.592 422.5,138.5 Z"/>
  </g>
  <g>
    <path style="opacity:0.992" fill="#d7a19b" d="M 203.5,314.5 C 204.736,316.649 205.736,318.982 206.5,321.5C 204.166,319.824 203.166,317.491 203.5,314.5 Z"/>
  </g>
  <g>
    <path style="opacity:0.992" fill="#961e10" d="M 300.5,313.5 C 305.579,312.846 309.913,314.18 313.5,317.5C 313.666,324.508 313.5,331.508 313,338.5C 309.723,340.554 306.223,342.221 302.5,343.5C 299.261,342.71 297.094,340.71 296,337.5C 295.24,330.45 295.407,323.45 296.5,316.5C 297.262,314.738 298.596,313.738 300.5,313.5 Z"/>
  </g>
  <g>
    <path style="opacity:0.992" fill="#f66872" d="M 240.5,321.5 C 241.221,324.817 241.388,328.151 241,331.5C 238.345,333.053 235.512,334.22 232.5,335C 233.056,335.383 233.389,335.883 233.5,336.5C 230.178,335.119 227.012,335.452 224,337.5C 220.859,347.917 219.692,358.584 220.5,369.5C 219.5,364.833 218.5,360.167 217.5,355.5C 217.564,351.78 218.064,348.114 219,344.5C 222.745,335.262 226.078,325.928 229,316.5C 232.246,319.556 236.079,321.223 240.5,321.5 Z"/>
  </g>
  <g>
    <path style="opacity:0.992" fill="#47b890" d="M 299.5,317.5 C 301.792,317.244 303.959,317.577 306,318.5C 306.667,324.833 306.667,331.167 306,337.5C 304,340.167 302,340.167 300,337.5C 299.5,330.842 299.334,324.175 299.5,317.5 Z"/>
  </g>
  <g>
    <path style="opacity:0.992" fill="#971e08" d="M 249.5,321.5 C 259.53,321.388 269.53,321.888 279.5,323C 282.077,326.262 282.077,329.595 279.5,333C 269.196,334.348 258.863,334.681 248.5,334C 244.286,329.361 244.619,325.195 249.5,321.5 Z"/>
  </g>
  <g>
    <path style="opacity:0.992" fill="#931d0a" d="M 402.5,322.5 C 406.45,322.86 408.783,325.027 409.5,329C 407.656,337.211 404.656,344.878 400.5,352C 397.314,352.399 394.314,353.232 391.5,354.5C 386.848,354.515 384.515,352.182 384.5,347.5C 386.061,341.143 388.394,335.143 391.5,329.5C 392.796,323.549 396.463,321.215 402.5,322.5 Z"/>
  </g>
  <g>
    <path style="opacity:0.996" fill="#dfb2ad" d="M 514.5,321.5 C 514.771,323.38 514.104,324.713 512.5,325.5C 512.66,323.847 513.326,322.514 514.5,321.5 Z"/>
  </g>
  <g>
    <path style="opacity:0.992" fill="#f8d134" d="M 250.5,325.5 C 256.509,325.334 262.509,325.501 268.5,326C 269.86,327.938 269.527,329.604 267.5,331C 262.167,331.667 256.833,331.667 251.5,331C 249.365,329.444 249.032,327.611 250.5,325.5 Z"/>
  </g>
  <g>
    <path style="opacity:0.992" fill="#84be32" d="M 396.5,326.5 C 398.167,326.5 399.833,326.5 401.5,326.5C 401.192,330.595 400.359,334.595 399,338.5C 397.284,341.64 395.951,344.973 395,348.5C 389.934,351.894 387.934,350.56 389,344.5C 391.417,338.401 393.917,332.401 396.5,326.5 Z"/>
  </g>
  <g>
    <path style="opacity:0.996" fill="#ddb1ab" d="M 208.5,331.5 C 210.241,333.395 211.241,335.728 211.5,338.5C 211.5,339.5 211.5,340.5 211.5,341.5C 210.21,338.358 209.21,335.025 208.5,331.5 Z"/>
  </g>
  <g>
    <path style="opacity:0.992" fill="#fb4351" d="M 453.5,337.5 C 453.389,338.117 453.056,338.617 452.5,339C 455.157,339.175 457.824,339.008 460.5,338.5C 460.649,339.552 460.483,340.552 460,341.5C 449.559,348.074 446.392,357.407 450.5,369.5C 450.509,371.308 450.009,372.975 449,374.5C 444.129,365.806 442.463,356.473 444,346.5C 445.744,341.921 448.91,338.921 453.5,337.5 Z"/>
  </g>
  <g>
    <path style="opacity:0.992" fill="#f6ac3d" d="M 520.5,295.5 C 514.232,316.792 503.398,335.458 488,351.5C 483.59,358.913 479.09,366.246 474.5,373.5C 474.033,367.809 475.033,362.142 477.5,356.5C 476.635,355.417 475.635,355.251 474.5,356C 469.385,359.117 466.218,363.617 465,369.5C 464.501,374.489 464.334,379.489 464.5,384.5C 460.615,385.905 456.615,386.905 452.5,387.5C 453.287,382.304 454.787,377.304 457,372.5C 460.217,363.289 465.717,355.789 473.5,350C 483.485,345.008 492.652,338.842 501,331.5C 510.631,313.925 518.298,295.592 524,276.5C 523.91,283.112 522.743,289.445 520.5,295.5 Z"/>
  </g>
  <g>
    <path style="opacity:0.988" fill="#a7391e" d="M 520.5,295.5 C 520.12,297.698 520.787,299.365 522.5,300.5C 522.5,300.833 522.5,301.167 522.5,301.5C 521.191,308.771 518.524,315.438 514.5,321.5C 513.326,322.514 512.66,323.847 512.5,325.5C 506.713,336.95 499.38,347.283 490.5,356.5C 488.178,357.802 486.845,359.802 486.5,362.5C 484.671,366.828 482.338,370.828 479.5,374.5C 478.833,374.5 478.167,374.5 477.5,374.5C 476.791,373.596 475.791,373.263 474.5,373.5C 479.09,366.246 483.59,358.913 488,351.5C 503.398,335.458 514.232,316.792 520.5,295.5 Z"/>
  </g>
  <g>
    <path style="opacity:0.992" fill="#c4766b" d="M 211.5,338.5 C 213.461,342.046 214.794,346.046 215.5,350.5C 215.275,355.592 214.275,360.259 212.5,364.5C 214.036,356.719 213.703,349.052 211.5,341.5C 211.5,340.5 211.5,339.5 211.5,338.5 Z"/>
  </g>
  <g>
    <path style="opacity:0.992" fill="#951e0c" d="M 306.5,353.5 C 310.936,353.21 315.27,353.71 319.5,355C 323.729,357.329 324.396,360.329 321.5,364C 312.127,367.564 302.46,370.064 292.5,371.5C 290.045,371.372 288.045,370.372 286.5,368.5C 286.223,365.552 286.556,362.719 287.5,360C 293.924,357.724 300.258,355.557 306.5,353.5 Z"/>
  </g>
  <g>
    <path style="opacity:0.992" fill="#e0b4b0" d="M 490.5,356.5 C 489.66,358.853 488.326,360.853 486.5,362.5C 486.845,359.802 488.178,357.802 490.5,356.5 Z"/>
  </g>
  <g>
    <path style="opacity:0.992" fill="#f9a6ae" d="M 269.5,392.5 C 268.013,385.91 266.846,379.243 266,372.5C 261.596,359.547 252.763,354.88 239.5,358.5C 237.97,358.36 236.97,357.693 236.5,356.5C 236.173,351.786 236.507,347.12 237.5,342.5C 239.65,344.149 241.65,345.982 243.5,348C 267.56,353.884 276.226,368.717 269.5,392.5 Z"/>
  </g>
  <g>
    <path style="opacity:0.992" fill="#84c132" d="M 296.5,366.5 C 294.833,366.5 293.167,366.5 291.5,366.5C 291.33,365.178 291.663,364.011 292.5,363C 296.052,362.122 299.386,360.956 302.5,359.5C 306.567,357.946 310.9,357.28 315.5,357.5C 315.859,359.766 315.192,361.599 313.5,363C 307.784,364.013 302.117,365.18 296.5,366.5 Z"/>
  </g>
  <g>
    <path style="opacity:0.992" fill="#90922f" d="M 302.5,359.5 C 299.386,360.956 296.052,362.122 292.5,363C 291.663,364.011 291.33,365.178 291.5,366.5C 293.167,366.5 294.833,366.5 296.5,366.5C 294.735,367.461 292.735,367.795 290.5,367.5C 290.261,365.533 290.594,363.699 291.5,362C 295.031,360.594 298.698,359.76 302.5,359.5 Z"/>
  </g>
  <g>
    <path style="opacity:0.992" fill="#f9b63e" d="M 254.5,366.5 C 255.458,366.953 256.292,367.619 257,368.5C 260.105,374.789 261.605,381.455 261.5,388.5C 259.708,388.634 258.042,388.301 256.5,387.5C 256.167,386.833 255.833,386.167 255.5,385.5C 255.642,379.663 253.975,374.496 250.5,370C 246.219,369.202 242.219,369.702 238.5,371.5C 237.5,371.167 236.833,370.5 236.5,369.5C 236.586,368.504 236.252,367.671 235.5,367C 239.566,366.484 243.566,365.65 247.5,364.5C 249.851,365.173 252.184,365.84 254.5,366.5 Z"/>
  </g>
  <g>
    <path style="opacity:0.992" fill="#ed993f" d="M 254.5,366.5 C 252.184,365.84 249.851,365.173 247.5,364.5C 243.566,365.65 239.566,366.484 235.5,367C 236.252,367.671 236.586,368.504 236.5,369.5C 236.167,369.5 235.833,369.5 235.5,369.5C 232.502,366.333 229.669,363 227,359.5C 226.342,355.428 226.675,351.428 228,347.5C 228.309,353.621 230.143,359.121 233.5,364C 238.02,364.599 242.52,364.432 247,363.5C 250.044,363.452 252.544,364.452 254.5,366.5 Z"/>
  </g>
  <g>
    <path style="opacity:0.992" fill="#fbd373" d="M 255.5,385.5 C 248.614,382.277 242.947,377.611 238.5,371.5C 242.219,369.702 246.219,369.202 250.5,370C 253.975,374.496 255.642,379.663 255.5,385.5 Z"/>
  </g>
  <g>
    <path style="opacity:0.992" fill="#901d0e" d="M 366.5,368.5 C 370.582,368.344 374.582,368.844 378.5,370C 382.212,372.523 386.212,374.523 390.5,376C 392.907,383.776 389.907,387.276 381.5,386.5C 375.213,385.46 369.713,382.793 365,378.5C 364.037,374.851 364.537,371.518 366.5,368.5 Z"/>
  </g>
  <g>
    <path style="opacity:0.992" fill="#48bc94" d="M 368.5,371.5 C 370.199,371.34 371.866,371.506 373.5,372C 375.619,374.393 378.285,375.726 381.5,376C 386.162,381.071 385.162,383.404 378.5,383C 375.661,381.08 372.661,379.413 369.5,378C 368.577,375.959 368.244,373.792 368.5,371.5 Z"/>
  </g>
  <g>
    <path style="opacity:0.992" fill="#fc6875" d="M 439.5,349.5 C 439.334,354.844 439.501,360.177 440,365.5C 443.179,377.885 446.513,390.218 450,402.5C 450.667,406.833 450.667,411.167 450,415.5C 447.619,419.366 444.119,421.366 439.5,421.5C 435.971,421.736 433.305,420.403 431.5,417.5C 432.496,417.414 433.329,417.748 434,418.5C 435.711,416.044 437.044,413.377 438,410.5C 438.46,397.497 438.293,384.497 437.5,371.5C 437.357,363.943 438.024,356.61 439.5,349.5 Z"/>
  </g>
  <g>
    <path style="opacity:0.996" fill="#e1b9b5" d="M 477.5,374.5 C 478.167,374.5 478.833,374.5 479.5,374.5C 478.974,376.23 477.974,377.564 476.5,378.5C 476.833,377.167 477.167,375.833 477.5,374.5 Z"/>
  </g>
  <g>
    <path style="opacity:0.992" fill="#d08e84" d="M 227.5,370.5 C 226.266,373.465 226.266,376.465 227.5,379.5C 226.235,378.486 225.569,376.986 225.5,375C 225.569,373.014 226.235,371.514 227.5,370.5 Z"/>
  </g>
  <g>
    <path style="opacity:0.971" fill="#f96672" d="M 348.5,374.5 C 351.669,374.839 353.836,376.505 355,379.5C 355.547,393.843 354.047,407.843 350.5,421.5C 351.277,415.178 351.444,408.845 351,402.5C 348.833,392.333 342.667,386.167 332.5,384C 331.09,383.632 330.09,382.799 329.5,381.5C 335.451,379.895 341.451,378.395 347.5,377C 348.252,376.329 348.586,375.496 348.5,374.5 Z"/>
  </g>
  <g>
    <path style="opacity:0.992" fill="#fc6a77" d="M 348.5,374.5 C 334.508,373.965 321.175,376.632 308.5,382.5C 300.058,387.107 293.891,393.774 290,402.5C 286.589,407.612 282.089,408.778 276.5,406C 272.911,402.949 270.578,399.116 269.5,394.5C 272.522,394.196 275.522,393.696 278.5,393C 299.351,377.426 322.684,371.26 348.5,374.5 Z"/>
  </g>
  <g>
    <path style="opacity:0.992" fill="#fd6a77" d="M 428.5,372.5 C 427.186,379.931 425.186,387.097 422.5,394C 414.486,395.787 406.486,397.621 398.5,399.5C 386.146,397.419 376.479,401.419 369.5,411.5C 363.764,417.972 358.764,424.972 354.5,432.5C 354.312,426.112 354.812,419.778 356,413.5C 357.306,409.187 359.806,405.687 363.5,403C 374.334,396.082 385.334,389.415 396.5,383C 407.236,379.365 417.903,375.865 428.5,372.5 Z"/>
  </g>
  <g>
    <path style="opacity:0.996" fill="#d8a69f" d="M 474.5,380.5 C 474.106,382.71 472.773,384.043 470.5,384.5C 471.326,382.736 472.659,381.402 474.5,380.5 Z"/>
  </g>
  <g>
    <path style="opacity:0.996" fill="#deaea8" d="M 227.5,380.5 C 229.213,381.635 229.88,383.302 229.5,385.5C 228.463,384.07 227.796,382.403 227.5,380.5 Z"/>
  </g>
  <g>
    <path style="opacity:0.992" fill="#fcaab3" d="M 217.5,355.5 C 218.5,360.167 219.5,364.833 220.5,369.5C 220.437,381.144 222.937,392.144 228,402.5C 228.495,404.473 228.662,406.473 228.5,408.5C 228.38,409.586 227.713,410.253 226.5,410.5C 225.833,410.167 225.167,409.833 224.5,409.5C 221.867,405.456 219.7,401.123 218,396.5C 216.207,382.849 216.041,369.182 217.5,355.5 Z"/>
  </g>
  <g>
    <path style="opacity:0.992" fill="#a53a24" d="M 235.5,369.5 C 235.833,369.5 236.167,369.5 236.5,369.5C 236.833,370.5 237.5,371.167 238.5,371.5C 242.947,377.611 248.614,382.277 255.5,385.5C 255.833,386.167 256.167,386.833 256.5,387.5C 256.5,388.5 256.5,389.5 256.5,390.5C 255.833,390.5 255.167,390.5 254.5,390.5C 245.665,386.331 238.331,380.331 232.5,372.5C 233.5,372.5 234.5,372.5 235.5,372.5C 235.5,371.5 235.5,370.5 235.5,369.5 Z"/>
  </g>
  <g>
    <path style="opacity:0.992" fill="#deaeaa" d="M 468.5,385.5 C 467.7,387.741 466.034,388.741 463.5,388.5C 464.965,387.263 466.632,386.263 468.5,385.5 Z"/>
  </g>
  <g>
    <path style="opacity:0.992" fill="#f6868f" d="M 220.5,369.5 C 222.463,377.225 224.963,384.892 228,392.5C 229.551,397.954 229.718,403.288 228.5,408.5C 228.662,406.473 228.495,404.473 228,402.5C 222.937,392.144 220.437,381.144 220.5,369.5 Z"/>
  </g>
  <g>
    <path style="opacity:0.996" fill="#d69e97" d="M 254.5,390.5 C 255.167,390.5 255.833,390.5 256.5,390.5C 257.833,391.5 259.167,392.5 260.5,393.5C 257.911,393.539 255.911,392.539 254.5,390.5 Z"/>
  </g>
  <g>
    <path style="opacity:0.992" fill="#f6af3d" d="M 340.5,409.5 C 339.85,404.478 337.517,400.312 333.5,397C 330.44,395.337 327.44,395.17 324.5,396.5C 318.022,393.301 312.355,394.301 307.5,399.5C 303.646,400.697 301.646,403.364 301.5,407.5C 299.883,406.962 298.216,406.629 296.5,406.5C 297.362,400.619 300.362,396.119 305.5,393C 318.171,387.5 330.171,388.5 341.5,396C 343.999,400.136 344.999,404.636 344.5,409.5C 343.167,409.5 341.833,409.5 340.5,409.5 Z"/>
  </g>
  <g>
    <path style="opacity:0.992" fill="#deb3ad" d="M 459.5,390.5 C 458.341,392.25 456.674,393.25 454.5,393.5C 455.659,391.75 457.326,390.75 459.5,390.5 Z"/>
  </g>
  <g>
    <path style="opacity:0.984" fill="#c9847a" d="M 229.5,385.5 C 231.253,388.146 232.253,391.146 232.5,394.5C 231.351,394.209 230.684,393.376 230.5,392C 229.923,389.863 229.59,387.696 229.5,385.5 Z"/>
  </g>
  <g>
    <path style="opacity:0.992" fill="#fad274" d="M 340.5,409.5 C 336.774,411.13 332.774,412.13 328.5,412.5C 330.748,406.19 329.415,400.857 324.5,396.5C 327.44,395.17 330.44,395.337 333.5,397C 337.517,400.312 339.85,404.478 340.5,409.5 Z"/>
  </g>
  <g>
    <path style="opacity:0.988" fill="#c98078" d="M 452.5,395.5 C 453.038,397.117 453.371,398.784 453.5,400.5C 452.351,400.209 451.684,399.376 451.5,398C 451.528,396.93 451.861,396.097 452.5,395.5 Z"/>
  </g>
  <g>
    <path style="opacity:0.992" fill="#d59c95" d="M 212.5,390.5 C 213.693,390.97 214.36,391.97 214.5,393.5C 215.298,397.489 215.965,401.489 216.5,405.5C 214.421,400.808 213.088,395.808 212.5,390.5 Z"/>
  </g>
  <g>
    <path style="opacity:0.992" fill="#e5a663" d="M 308.5,409.5 C 312.514,409.666 316.514,409.499 320.5,409C 322.15,404.314 320.484,402.314 315.5,403C 314.627,404.045 313.627,404.878 312.5,405.5C 313.828,401.746 316.494,400.579 320.5,402C 322.444,404.153 322.944,406.653 322,409.5C 317.4,410.823 312.9,410.823 308.5,409.5 Z"/>
  </g>
  <g>
    <path style="opacity:0.992" fill="#fcd677" d="M 307.5,399.5 C 306.425,403.938 308.092,405.938 312.5,405.5C 313.627,404.878 314.627,404.045 315.5,403C 320.484,402.314 322.15,404.314 320.5,409C 316.514,409.499 312.514,409.666 308.5,409.5C 306.401,408.388 304.067,407.721 301.5,407.5C 301.646,403.364 303.646,400.697 307.5,399.5 Z"/>
  </g>
  <g>
    <path style="opacity:0.992" fill="#ca8479" d="M 425.5,415.5 C 423.989,413.524 423.156,411.191 423,408.5C 422,407.5 421,406.5 420,405.5C 418.989,406.337 417.822,406.67 416.5,406.5C 416.791,405.351 417.624,404.684 419,404.5C 424.647,406.002 426.814,409.669 425.5,415.5 Z"/>
  </g>
  <g>
    <path style="opacity:0.992" fill="#cc897e" d="M 268.5,402.5 C 270.833,405.5 273.5,408.167 276.5,410.5C 272.15,409.483 269.483,406.816 268.5,402.5 Z"/>
  </g>
  <g>
    <path style="opacity:0.996" fill="#d1938c" d="M 290.5,408.5 C 290.735,407.903 291.235,407.57 292,407.5C 295.356,408.176 298.19,409.509 300.5,411.5C 297.037,410.901 293.704,409.901 290.5,408.5 Z"/>
  </g>
  <g>
    <path style="opacity:0.996" fill="#d7a19b" d="M 414.5,406.5 C 408.729,408.287 402.729,409.62 396.5,410.5C 396.611,409.883 396.944,409.383 397.5,409C 403.156,408.025 408.823,407.192 414.5,406.5 Z"/>
  </g>
  <g>
    <path style="opacity:0.992" fill="#d2978f" d="M 221.5,412.5 C 225.183,413.675 228.85,413.675 232.5,412.5C 228.902,416.224 225.236,416.224 221.5,412.5 Z"/>
  </g>
  <g>
    <path style="opacity:0.996" fill="#d39790" d="M 308.5,413.5 C 312.188,413.781 315.855,414.281 319.5,415C 320.056,415.383 320.389,415.883 320.5,416.5C 316.159,416.342 312.159,415.342 308.5,413.5 Z"/>
  </g>
  <g>
    <path style="opacity:0.984" fill="#d29891" d="M 343.5,413.5 C 341.412,414.939 339.079,415.606 336.5,415.5C 336.791,414.351 337.624,413.684 339,413.5C 340.735,412.774 342.235,412.774 343.5,413.5 Z"/>
  </g>
  <g>
    <path style="opacity:0.996" fill="#dbada8" d="M 373.5,412.5 C 374.167,412.5 374.833,412.5 375.5,412.5C 374.5,414.167 373.167,415.5 371.5,416.5C 371.733,414.938 372.4,413.605 373.5,412.5 Z"/>
  </g>
  <g>
    <path style="opacity:0.996" fill="#d39993" d="M 430.5,422.5 C 434.743,423.681 439.076,424.348 443.5,424.5C 441.372,425.629 439.039,425.796 436.5,425C 434.026,424.963 432.026,424.13 430.5,422.5 Z"/>
  </g>
  <g>
    <path style="opacity:0.992" fill="#d69f99" d="M 358.5,436.5 C 357.386,440.25 356.386,443.917 355.5,447.5C 355.364,444.449 355.698,441.449 356.5,438.5C 356.747,437.287 357.414,436.62 358.5,436.5 Z"/>
  </g>
  <g>
    <path style="opacity:0.878" fill="#cc887f" d="M 343.5,413.5 C 346.525,414.033 347.858,415.867 347.5,419C 346.251,426.579 344.751,434.079 343,441.5C 342.5,449.159 342.334,456.826 342.5,464.5C 340.303,449.158 341.637,433.991 346.5,419C 346.137,416.808 345.137,414.974 343.5,413.5 Z"/>
  </g>
  <g>
    <path style="opacity:0.992" fill="#fdaab3" d="M 351.5,455.5 C 351.726,458.249 351.393,460.916 350.5,463.5C 349.192,464.626 347.858,464.626 346.5,463.5C 346.334,456.159 346.5,448.826 347,441.5C 347.333,444.5 347.667,447.5 348,450.5C 348.22,452.973 349.386,454.64 351.5,455.5 Z"/>
  </g>
  <g>
    <path style="opacity:0.992" fill="#a83727" d="M 369.5,411.5 C 370.833,411.833 372.167,412.167 373.5,412.5C 372.4,413.605 371.733,414.938 371.5,416.5C 366.349,422.648 362.015,429.315 358.5,436.5C 357.414,436.62 356.747,437.287 356.5,438.5C 355.698,441.449 355.364,444.449 355.5,447.5C 356.789,453.567 356.622,459.567 355,465.5C 354.617,466.056 354.117,466.389 353.5,466.5C 350.236,467.324 346.902,467.658 343.5,467.5C 342.89,466.609 342.557,465.609 342.5,464.5C 343.778,464.218 344.778,463.551 345.5,462.5C 345.5,463.167 345.833,463.5 346.5,463.5C 347.858,464.626 349.192,464.626 350.5,463.5C 351.393,460.916 351.726,458.249 351.5,455.5C 351.334,451.154 351.501,446.821 352,442.5C 353.352,439.28 354.186,435.947 354.5,432.5C 358.764,424.972 363.764,417.972 369.5,411.5 Z"/>
  </g>
  <g>
    <path style="opacity:0.992" fill="#cb857c" d="M 353.5,466.5 C 350.486,470.087 347.153,470.421 343.5,467.5C 346.902,467.658 350.236,467.324 353.5,466.5 Z"/>
  </g>
</svg>