<?xml version="1.0" standalone="no"?><svg width="363.00000000000006" height="330" xmlns="http://www.w3.org/2000/svg" xmlns:xlink="http://www.w3.org/1999/xlink"><style>body { font-family: sans-serif; padding: 0px; margin: 0px; }line.bg { stroke: rgba(3, 148, 172, 0.7); stroke-width: 1px; }circle.bg { fill: rgba(100, 220, 240, 0.7); }line.bg-sub { stroke: rgba(140, 240, 240, 0.5); stroke-width: 1px; }rect, path, circle { fill: none; stroke-width: 2px; stroke-linejoin: round; }pattern line { vector-effect: non-scaling-stroke; }.zoomed-out pattern line { vector-effect: none; }text { stroke-width: 0px; font-family: sans-serif; }text tspan { vector-effect: non-scaling-stroke; white-space: pre; }.ui-dark { background: rgb(51, 51, 51); }.ui-dark line.bg { stroke: rgba(172, 232, 242, 0.57); stroke-width: 1px; }.ui-dark circle.bg { fill: rgba(100, 220, 240, 0.3); }.ui-dark line.bg-sub { stroke: rgba(140, 240, 240, 0.1); stroke-width: 1px; }rect.marquee { fill: rgba(234, 255, 231, 0.3); stroke: rgb(98, 137, 95); stroke-width: 1px; stroke-dasharray: 4px; vector-effect: non-scaling-stroke; }rect.highlight { fill: blue; opacity: 0.5; }.bg rect { stroke: rgba(3, 148, 172, 0.7); stroke-width: 1px; }</style><g transform="translate(-508.5, -405)"><defs><pattern id="pattern_bg" viewBox="0 0 60 60" width="0.041666666666666664" height="0.07058823529411765" patternTransform="scale(0.4566113963471088 0.4566113963471088) translate(866.2380815040742 351.79336733061496)"><line class="bg" x1="0" y1="0" x2="60" y2="0"></line><line class="bg" x1="0" y1="0" y2="60" x2="0"></line><line class="bg-sub" x1="0" y1="15" x2="60" y2="15"></line><line class="bg-sub" y1="0" x1="15" y2="60" x2="15"></line><line class="bg-sub" x1="0" y1="30" x2="60" y2="30"></line><line class="bg-sub" y1="0" x1="30" y2="60" x2="30"></line><line class="bg-sub" x1="0" y1="45" x2="60" y2="45"></line><line class="bg-sub" y1="0" x1="45" y2="60" x2="45"></line></pattern></defs><g class="bg"><rect x="-866.2380815040742" y="-351.79336733061496" width="3153.6663594470047" height="1861.5391705069126" style="fill: url(&quot;#pattern_bg&quot;);"></rect></g><g class="u current" data-layer="Layer 1" style="visibility: visible;"><path d="M 600 420 L 780 420 L 780 720 L 600 720 Z" class="" stroke="rgba(0, 0, 0, 1)" style="fill: rgba(0, 0, 0, 0); stroke-width: 2px; stroke: rgb(255, 255, 255);" data--qt=""></path><path d="M 525 570 L 855 570" class="" stroke="rgba(0, 0, 0, 1)" style="fill: rgba(0, 0, 0, 0); stroke-width: 2px; stroke: rgb(255, 255, 255);" data--qt=""></path><path d="M 600 420 L 525 570 L 600 720 L 780 720 L 855 570 L 780 420 Z" class="" stroke="rgba(0, 0, 0, 1)" style="fill: rgba(0, 0, 0, 0); stroke-width: 2px; stroke: rgb(255, 255, 255);" data--qt=""></path><path d="M 600 420 L 780 720 L 600 720 L 780 420 L 525 570 L 780 720 L 600 720 L 855 570 Z" class="" stroke="rgba(0, 0, 0, 1)" style="fill: rgba(0, 0, 0, 0); stroke-width: 2px; stroke: rgb(255, 255, 255);" data--qt=""></path></g></g></svg>